<svg id="svg" version="1.1" xmlns="http://www.w3.org/2000/svg" xmlns:xlink="http://www.w3.org/1999/xlink" viewBox="0, 0, 400,400.5594405594406"><g id="svgg"><path id="path0" d="M186.014 18.518 C 182.937 18.770,177.650 19.391,174.266 19.898 C 170.881 20.404,167.357 20.883,166.434 20.961 C 165.510 21.039,164.378 21.256,163.916 21.444 C 163.105 21.774,160.915 22.251,158.601 22.600 C 150.052 23.892,131.579 30.699,117.561 37.723 C 62.286 65.421,24.149 119.016,16.221 180.140 C 15.881 182.755,15.479 185.524,15.325 186.294 C 14.225 191.817,14.584 220.228,15.862 228.811 C 15.976 229.580,16.250 231.469,16.471 233.007 C 17.046 237.018,19.522 249.487,20.137 251.469 C 28.615 278.779,33.200 288.888,45.961 308.400 C 68.996 343.626,113.229 376.251,148.508 384.038 C 148.829 384.109,149.469 384.306,149.930 384.476 C 151.030 384.880,157.678 386.638,159.140 386.910 C 159.767 387.027,161.538 387.351,163.077 387.630 C 164.615 387.909,166.378 388.260,166.993 388.409 C 169.542 389.027,173.718 389.461,187.413 390.528 C 236.948 394.391,287.422 377.714,324.476 345.243 C 328.837 341.421,343.497 326.925,343.497 326.434 C 343.497 326.280,343.937 325.697,344.476 325.139 C 345.014 324.582,346.587 322.774,347.972 321.122 C 349.357 319.470,351.144 317.346,351.943 316.402 C 364.580 301.483,379.052 268.586,384.324 242.797 C 389.797 216.023,389.353 183.145,383.174 157.762 C 370.744 106.698,333.738 61.015,285.874 37.649 C 279.698 34.634,270.515 30.734,269.091 30.521 C 268.629 30.452,263.972 28.994,258.741 27.282 C 235.227 19.585,210.028 16.548,186.014 18.518 M224.532 23.200 C 266.082 28.957,300.168 45.179,328.597 72.727 C 396.419 138.446,403.029 246.007,343.776 319.713 C 337.952 326.958,325.633 339.671,324.885 339.208 C 324.565 339.010,324.465 339.111,324.663 339.431 C 325.094 340.128,320.320 344.189,319.745 343.615 C 319.526 343.396,319.431 343.482,319.534 343.805 C 319.986 345.234,304.024 357.014,292.852 363.497 C 171.240 434.062,19.090 345.606,19.324 204.476 C 19.456 124.700,70.366 55.068,146.499 30.532 C 160.122 26.141,170.381 24.187,190.490 22.151 C 195.211 21.673,218.743 22.398,224.532 23.200 M200.197 34.584 C 195.809 36.829,193.294 38.887,191.346 41.827 C 187.702 47.329,189.027 48.112,201.976 48.112 C 209.926 48.112,212.022 48.275,212.900 48.962 C 213.879 49.728,212.705 49.800,200.994 49.693 C 193.849 49.627,187.830 49.746,187.619 49.957 C 186.688 50.888,185.734 48.930,185.734 46.085 C 185.734 41.413,183.190 43.225,182.833 48.152 L 182.657 50.578 178.182 51.346 C 161.121 54.276,142.751 59.949,132.476 65.463 L 130.407 66.574 128.687 64.755 C 127.742 63.755,126.051 61.615,124.929 60.000 C 122.274 56.175,121.863 56.293,122.008 60.839 C 122.086 63.271,121.801 65.460,121.209 66.987 C 120.276 69.393,120.620 73.373,121.945 75.507 C 123.023 77.244,128.895 75.065,129.231 72.803 L 129.510 70.920 130.576 72.104 C 131.992 73.675,132.565 73.614,137.257 71.387 C 142.029 69.123,152.172 65.064,154.946 64.308 C 160.980 62.665,175.390 59.285,178.939 58.681 C 182.333 58.103,183.156 57.754,183.643 56.685 L 184.233 55.389 185.060 56.569 C 185.757 57.564,186.248 57.694,188.188 57.396 C 189.454 57.201,196.318 57.058,203.442 57.077 C 213.538 57.104,216.460 56.953,216.692 56.388 C 216.909 55.862,217.278 55.990,218.040 56.854 C 219.130 58.091,223.493 59.301,226.865 59.301 C 230.015 59.301,232.353 47.310,230.013 43.160 L 229.271 41.845 227.864 43.916 C 226.455 45.989,226.424 46.492,227.458 50.609 L 227.836 52.118 225.107 51.752 C 220.957 51.195,218.969 49.960,218.226 47.478 C 217.178 43.981,216.201 43.637,207.288 43.632 C 192.312 43.622,191.178 43.059,198.619 39.319 C 202.325 37.457,203.527 36.544,204.327 34.984 C 205.650 32.405,204.649 32.308,200.197 34.584 M264.166 49.397 C 261.583 52.062,262.955 58.030,266.356 58.920 C 268.534 59.489,267.499 61.772,264.915 62.098 C 262.633 62.386,258.061 67.152,258.847 68.423 C 259.170 68.946,267.116 72.727,267.892 72.727 C 268.576 72.727,270.729 67.858,271.117 65.434 C 271.489 63.108,274.271 59.685,276.317 59.036 C 279.103 58.152,279.459 52.126,276.730 52.042 C 275.592 52.008,273.005 54.440,272.987 55.563 C 272.919 59.730,271.472 59.504,270.449 55.166 C 268.662 47.582,267.213 46.253,264.166 49.397 M239.630 51.058 C 237.970 52.949,237.919 53.152,238.480 55.603 C 239.315 59.256,238.548 60.605,234.845 61.990 C 231.970 63.066,229.141 63.084,228.490 62.031 C 228.082 61.370,227.133 61.403,227.133 62.078 C 227.133 62.975,230.549 66.575,232.219 67.439 C 234.312 68.522,235.800 67.893,238.769 64.673 C 241.126 62.115,241.170 62.096,242.786 62.931 C 244.979 64.065,245.329 64.014,246.898 62.321 L 248.248 60.866 250.092 63.160 C 252.439 66.081,252.899 66.043,255.339 62.720 C 257.503 59.772,258.893 52.147,257.431 51.243 C 256.161 50.459,252.064 52.140,249.849 54.355 C 247.085 57.119,242.863 56.430,242.772 53.200 C 242.758 52.709,242.437 51.581,242.057 50.693 L 241.368 49.079 239.630 51.058 M115.873 55.489 C 115.523 56.431,114.953 56.783,113.780 56.783 C 111.558 56.783,110.956 60.680,113.117 61.070 C 115.192 61.444,116.364 60.978,116.364 59.779 C 116.364 58.963,116.703 58.689,117.622 58.763 C 120.167 58.969,120.353 58.815,120.174 56.643 C 119.953 53.980,116.753 53.121,115.873 55.489 M282.845 59.967 C 280.796 61.655,274.126 74.252,274.126 76.432 C 274.126 79.244,279.180 73.142,282.739 66.031 C 286.874 57.772,286.893 56.629,282.845 59.967 M184.875 61.012 C 184.673 61.339,183.826 61.454,182.984 61.269 C 180.632 60.753,179.554 63.367,181.573 64.690 C 182.893 65.555,183.025 65.548,183.737 64.575 C 184.377 63.699,184.633 63.654,185.387 64.280 C 186.521 65.221,187.728 64.769,188.124 63.254 C 188.630 61.321,185.864 59.412,184.875 61.012 M218.862 63.345 L 217.642 64.564 218.815 65.813 C 219.774 66.834,220.176 66.945,221.012 66.423 C 221.826 65.914,222.259 65.986,223.132 66.776 C 224.398 67.922,226.573 67.057,226.573 65.407 C 226.573 63.747,224.608 62.478,223.302 63.294 C 222.345 63.891,221.992 63.854,221.121 63.066 C 220.143 62.180,220.010 62.197,218.862 63.345 M126.187 68.198 C 125.426 69.429,124.343 68.851,124.627 67.367 C 124.871 66.089,124.999 66.018,125.735 66.754 C 126.192 67.211,126.395 67.861,126.187 68.198 M300.811 67.273 C 299.404 68.319,300.325 71.324,302.059 71.342 C 302.879 71.351,303.627 71.916,304.158 72.930 C 304.964 74.469,307.026 74.686,308.377 73.374 C 309.329 72.449,307.910 69.652,306.398 69.473 C 305.352 69.350,304.794 68.884,304.556 67.935 C 304.174 66.412,302.393 66.097,300.811 67.273 M97.750 70.283 C 96.680 72.014,99.105 76.295,104.386 81.998 C 109.885 87.936,111.087 88.655,110.169 85.453 C 109.137 81.855,98.573 68.951,97.750 70.283 M189.650 70.834 C 178.317 72.199,165.168 75.148,157.483 78.047 C 155.329 78.859,152.434 79.924,151.049 80.413 C 133.925 86.464,108.662 105.325,96.903 120.839 C 95.153 123.147,93.559 125.161,93.360 125.315 C 91.722 126.579,83.171 141.594,80.062 148.665 C 61.275 191.395,65.075 240.935,90.046 278.803 C 131.062 341.003,214.868 358.505,276.607 317.765 C 374.252 253.332,349.169 103.562,235.838 74.331 C 224.487 71.403,200.192 69.564,189.650 70.834 M305.102 76.330 C 304.139 76.749,303.180 77.369,302.971 77.707 C 302.760 78.049,301.022 78.322,299.059 78.322 C 295.613 78.322,290.452 80.919,289.592 83.087 C 289.031 84.498,294.019 89.122,295.340 88.416 C 296.958 87.549,297.265 87.896,296.455 89.674 C 295.832 91.041,296.156 91.451,304.188 99.433 C 308.799 104.016,313.750 109.260,315.191 111.086 C 317.818 114.414,323.664 122.213,325.370 124.664 C 325.960 125.512,326.651 125.875,327.336 125.696 C 328.459 125.402,328.840 126.650,327.819 127.281 C 327.150 127.694,329.387 132.000,330.313 132.079 C 330.641 132.108,331.649 132.171,332.553 132.219 C 334.190 132.307,334.197 132.322,334.051 135.524 C 333.971 137.294,334.141 138.741,334.429 138.741 C 338.860 138.741,346.853 134.344,346.853 131.907 C 346.853 130.169,342.629 128.488,339.259 128.884 C 336.599 129.197,336.272 129.108,335.447 127.849 C 334.276 126.061,334.273 126.068,336.156 125.692 C 340.256 124.872,341.580 119.378,338.210 117.170 C 336.350 115.951,331.479 116.586,332.069 117.971 C 332.993 120.139,332.058 122.418,330.983 120.615 C 330.635 120.030,328.462 117.049,326.154 113.989 C 323.846 110.930,321.410 107.686,320.741 106.780 C 317.878 102.905,306.972 91.405,303.858 88.977 C 301.590 87.209,301.640 86.300,304.260 81.776 C 308.270 74.848,308.253 74.959,305.102 76.330 M87.660 77.621 C 86.903 78.949,88.787 82.567,90.733 83.522 C 96.747 86.472,98.147 89.218,94.927 91.748 L 93.147 93.147 94.052 91.752 C 95.887 88.923,93.311 85.793,90.670 87.643 C 89.940 88.155,87.810 89.099,85.937 89.741 C 80.979 91.442,79.997 94.712,83.290 98.559 C 84.167 99.583,85.594 99.953,85.594 99.155 C 85.594 98.514,88.464 95.550,88.779 95.865 C 89.425 96.512,88.170 98.543,86.122 100.165 L 83.912 101.915 78.070 98.795 C 74.856 97.079,72.103 95.877,71.950 96.123 C 71.173 97.381,74.560 101.265,77.917 102.965 C 79.832 103.935,81.495 104.820,81.613 104.933 C 81.731 105.045,80.871 106.392,79.701 107.925 L 77.576 110.713 76.044 109.622 C 72.315 106.967,73.195 109.407,77.434 113.478 C 81.739 117.611,81.621 117.598,84.298 114.266 C 85.473 112.804,86.656 111.447,86.929 111.249 C 87.201 111.051,87.265 110.257,87.071 109.484 C 86.780 108.321,86.893 108.124,87.727 108.342 C 89.353 108.767,94.144 103.095,93.700 101.272 C 93.511 100.495,93.212 99.231,93.036 98.462 L 92.715 97.063 94.360 98.601 C 96.566 100.664,96.581 100.659,100.655 96.548 L 104.215 92.957 102.741 90.441 C 101.930 89.058,100.101 86.930,98.677 85.712 C 96.667 83.994,95.930 82.888,95.385 80.770 L 94.682 78.042 92.404 78.216 C 91.151 78.312,89.625 78.123,89.013 77.795 C 88.401 77.468,87.792 77.389,87.660 77.621 M299.741 83.156 C 298.880 84.017,297.622 83.807,297.622 82.803 C 297.622 82.328,299.896 81.740,300.386 82.089 C 300.522 82.185,300.231 82.666,299.741 83.156 M64.895 111.975 C 64.895 113.738,67.767 116.364,69.696 116.364 C 72.729 116.364,72.126 119.373,68.195 123.855 C 67.951 124.134,66.498 123.546,64.906 122.525 C 60.747 119.855,60.259 122.081,64.211 125.700 L 66.159 127.485 62.507 134.931 C 57.754 144.621,53.521 156.039,50.931 166.154 L 48.855 174.266 42.849 174.425 C 36.229 174.600,35.630 175.076,39.480 177.099 C 40.689 177.734,42.182 179.146,42.797 180.235 C 44.482 183.218,45.141 183.851,47.927 185.161 C 51.164 186.682,51.526 186.516,52.820 182.916 L 53.884 179.958 52.676 178.980 C 51.118 177.719,51.152 177.343,52.827 177.343 C 54.899 177.343,55.662 176.176,56.722 171.386 C 58.894 161.566,64.366 146.824,69.514 136.925 C 71.931 132.276,72.261 131.279,71.751 130.159 C 71.208 128.968,71.271 128.869,72.430 129.091 C 73.671 129.328,80.379 120.415,79.887 119.183 C 78.502 115.714,64.895 109.172,64.895 111.975 M55.501 118.176 C 54.460 118.677,54.284 119.090,54.567 120.376 C 54.758 121.246,54.690 121.958,54.417 121.958 C 52.828 121.958,51.951 123.415,52.636 124.918 C 53.752 127.368,57.469 126.450,56.825 123.883 C 56.549 122.785,56.743 122.479,57.895 122.190 C 59.508 121.785,59.700 120.540,58.430 118.726 C 57.455 117.334,57.307 117.306,55.501 118.176 M49.411 118.399 C 48.926 118.597,48.907 119.110,49.337 120.344 C 50.200 122.821,52.790 122.483,53.042 119.860 C 53.219 118.030,51.757 117.442,49.411 118.399 M82.364 123.659 C 81.349 124.067,81.163 124.456,81.445 125.582 C 81.640 126.358,81.569 126.993,81.286 126.993 C 79.510 126.993,78.656 128.524,79.615 129.988 C 80.786 131.775,83.357 131.062,83.357 128.951 C 83.357 128.196,83.885 127.491,84.744 127.100 C 86.139 126.464,86.180 125.457,84.880 123.776 C 84.258 122.973,84.092 122.965,82.364 123.659 M341.818 132.341 C 341.818 132.784,341.441 133.147,340.979 133.147 C 340.136 133.147,339.829 131.966,340.498 131.297 C 341.020 130.775,341.818 131.406,341.818 132.341 M344.476 139.729 C 335.410 144.477,335.502 144.358,337.680 148.536 C 339.469 151.966,340.092 152.480,343.089 152.993 L 345.455 153.398 343.077 154.438 C 340.330 155.640,340.302 155.789,341.896 160.591 C 343.843 166.452,344.588 166.698,351.877 163.887 C 355.876 162.344,356.533 162.240,358.652 162.811 C 361.034 163.452,361.926 163.052,361.949 161.334 C 361.954 160.991,362.499 160.022,363.161 159.181 C 364.153 157.920,364.227 157.566,363.580 157.156 C 362.281 156.333,358.603 156.547,358.251 157.465 C 357.726 158.834,349.650 162.546,349.650 161.419 C 349.650 161.277,349.144 159.876,348.525 158.305 C 347.419 155.500,347.898 155.030,349.542 157.308 C 349.989 157.927,350.978 158.322,352.084 158.322 L 353.896 158.322 354.040 154.266 C 354.119 152.035,354.215 149.381,354.252 148.369 C 354.349 145.731,352.989 144.615,349.677 144.615 C 346.250 144.615,345.927 144.951,347.060 147.337 C 347.561 148.395,347.972 149.819,347.972 150.503 C 347.972 152.276,346.444 150.931,345.098 147.972 C 343.247 143.901,343.430 143.606,349.790 140.390 C 357.002 136.743,357.501 136.364,355.739 135.870 C 353.320 135.192,352.796 135.372,344.476 139.729 M253.306 140.201 C 254.625 140.629,256.387 140.980,257.222 140.982 C 258.058 140.984,259.685 141.247,260.839 141.568 L 262.937 142.150 263.013 155.411 C 263.138 177.205,262.941 199.375,262.613 200.415 C 262.190 201.753,262.921 202.884,263.558 201.878 C 263.884 201.363,264.042 201.697,264.047 202.920 C 264.053 204.133,263.828 204.633,263.357 204.452 C 262.814 204.244,262.655 206.347,262.649 213.840 C 262.639 224.831,261.758 229.117,257.331 239.720 C 256.046 242.797,254.706 246.133,254.353 247.133 C 254.001 248.133,253.522 248.951,253.290 248.951 C 253.057 248.951,252.867 249.311,252.867 249.750 C 252.867 250.190,252.534 250.882,252.128 251.289 C 251.721 251.695,251.377 252.242,251.363 252.503 C 251.227 255.032,239.275 267.891,230.801 274.624 C 221.283 282.188,203.266 292.587,199.680 292.587 C 197.521 292.587,183.493 284.750,180.752 282.012 C 180.261 281.521,177.971 279.646,175.663 277.845 C 151.810 259.231,139.377 240.995,136.260 220.051 C 135.239 213.194,134.129 175.612,134.370 156.084 L 134.545 141.818 155.245 141.471 C 175.168 141.136,180.284 140.811,181.582 139.795 C 183.130 138.585,249.483 138.960,253.306 140.201 M140.559 147.476 C 138.870 148.224,140.399 213.324,142.308 221.922 C 143.698 228.185,147.192 237.352,149.838 241.678 C 150.496 242.755,151.260 244.140,151.536 244.755 C 155.817 254.318,175.679 271.297,193.063 280.255 C 200.258 283.963,199.935 284.010,210.786 277.640 C 243.227 258.593,258.110 235.934,258.452 205.070 C 258.492 201.396,258.616 198.244,258.727 198.064 C 258.838 197.885,259.111 186.478,259.334 172.715 L 259.739 147.692 219.800 147.672 C 197.833 147.661,171.175 147.542,160.559 147.409 C 149.944 147.275,140.944 147.305,140.559 147.476 M145.007 152.280 C 144.536 152.751,144.336 155.868,144.336 162.723 C 144.336 168.097,144.218 172.376,144.074 172.233 C 142.734 170.892,143.932 151.608,145.355 151.608 C 145.533 151.608,145.376 151.910,145.007 152.280 M250.909 152.168 C 251.330 152.848,173.313 152.848,171.189 152.168 C 170.420 151.921,187.964 151.695,210.177 151.664 C 236.558 151.628,250.683 151.802,250.909 152.168 M333.715 153.443 C 332.294 155.472,333.262 157.203,335.817 157.203 C 336.536 157.203,337.902 155.021,337.902 153.875 C 337.902 152.569,334.568 152.226,333.715 153.443 M353.846 170.683 C 344.822 173.617,345.193 173.436,346.853 174.088 C 349.357 175.071,358.103 173.406,365.035 170.628 C 366.564 170.015,366.614 169.917,365.594 169.532 C 362.429 168.338,360.469 168.530,353.846 170.683 M170.071 178.012 C 171.198 185.029,171.371 185.074,172.243 178.580 C 173.155 171.786,172.657 172.308,178.224 172.308 L 182.956 172.308 182.807 186.713 L 182.657 201.119 179.580 201.119 L 176.503 201.119 176.224 193.007 L 175.944 184.895 175.212 189.371 C 174.810 191.832,174.306 195.483,174.093 197.483 L 173.706 201.119 171.397 201.288 C 168.692 201.485,168.820 201.770,167.807 193.287 C 166.835 185.144,166.154 185.443,166.154 194.014 L 166.154 201.399 162.797 201.399 L 159.441 201.399 159.441 186.831 L 159.441 172.264 164.320 172.426 L 169.200 172.587 170.071 178.012 M207.824 173.566 C 207.986 174.259,208.489 177.469,208.942 180.699 C 209.395 183.930,210.171 189.217,210.666 192.448 C 212.116 201.905,212.361 201.092,208.005 201.284 L 204.263 201.448 204.089 199.046 C 203.837 195.543,201.273 195.413,200.839 198.881 L 200.559 201.119 196.783 201.284 C 192.494 201.472,192.619 201.663,193.521 196.327 C 193.803 194.655,194.579 188.881,195.246 183.497 C 195.912 178.112,196.554 173.392,196.672 173.007 C 197.119 171.559,207.478 172.079,207.824 173.566 M230.031 182.378 C 229.988 193.192,230.321 197.072,231.268 196.758 C 231.684 196.619,231.980 192.617,232.168 184.569 L 232.448 172.587 236.262 172.421 L 240.077 172.255 239.899 184.729 C 239.707 198.109,239.574 198.760,236.689 200.422 C 232.754 202.689,227.100 201.944,224.335 198.795 L 222.657 196.884 222.657 184.570 L 222.657 172.257 226.364 172.422 L 230.071 172.587 230.031 182.378 M31.944 176.444 C 30.858 177.600,30.784 177.940,31.402 178.930 C 32.010 179.904,31.961 180.251,31.077 181.227 C 30.072 182.338,30.071 182.416,31.049 183.497 C 32.817 185.450,36.008 183.584,34.641 181.396 C 34.002 180.373,34.032 180.052,34.850 179.148 C 36.065 177.805,36.052 177.180,34.781 176.031 C 33.473 174.847,33.440 174.852,31.944 176.444 M47.733 177.762 C 47.869 177.993,47.743 178.810,47.454 179.579 L 46.927 180.976 45.853 179.579 C 44.437 177.736,44.484 177.343,46.121 177.343 C 46.872 177.343,47.598 177.531,47.733 177.762 M201.523 185.802 C 201.073 189.326,201.087 190.580,201.582 190.894 C 202.991 191.789,203.353 190.851,203.164 186.796 C 202.883 180.777,202.216 180.372,201.523 185.802 M144.895 184.895 C 144.895 185.320,144.643 185.824,144.336 186.014 C 144.017 186.211,143.776 185.729,143.776 184.895 C 143.776 184.061,144.017 183.579,144.336 183.776 C 144.643 183.966,144.895 184.470,144.895 184.895 M144.740 199.860 C 144.616 200.860,144.515 200.042,144.515 198.042 C 144.515 196.042,144.616 195.224,144.740 196.224 C 144.864 197.224,144.864 198.860,144.740 199.860 M219.190 198.462 L 219.359 201.399 216.812 201.399 L 214.266 201.399 214.266 198.695 C 214.266 195.432,214.505 195.144,217.043 195.358 C 219.010 195.524,219.022 195.540,219.190 198.462 M191.329 198.632 L 191.329 201.460 188.671 201.289 L 186.014 201.119 185.843 198.462 L 185.673 195.804 188.501 195.804 L 191.329 195.804 191.329 198.632 M351.049 198.576 C 346.555 200.434,345.369 207.106,348.849 210.951 C 351.490 213.869,357.226 213.544,359.937 210.323 C 364.999 204.307,358.372 195.547,351.049 198.576 M145.304 213.863 C 145.187 215.161,145.092 213.958,145.094 211.189 C 145.095 208.420,145.191 207.357,145.307 208.828 C 145.423 210.299,145.421 212.565,145.304 213.863 M40.768 209.613 C 36.195 212.452,36.531 219.860,41.346 222.350 C 47.397 225.480,54.209 219.459,51.703 213.197 C 50.081 209.142,44.483 207.308,40.768 209.613 M186.949 222.437 C 190.448 223.562,194.340 227.099,197.496 232.022 L 200.092 236.072 202.743 231.887 C 207.618 224.192,216.573 219.333,222.060 221.405 C 223.172 221.824,222.694 221.979,219.458 222.251 C 212.195 222.860,206.342 227.135,202.440 234.680 C 200.121 239.166,200.293 239.181,197.590 234.255 C 193.624 227.029,188.141 223.009,181.273 222.291 C 179.014 222.055,178.081 221.761,178.564 221.439 C 179.467 220.836,183.439 221.309,186.949 222.437 M188.424 226.847 C 190.401 227.924,192.225 229.571,193.879 231.771 C 197.235 236.235,197.006 237.041,193.431 233.349 C 187.896 227.634,182.900 225.597,175.990 226.239 C 173.517 226.469,172.256 226.409,172.600 226.077 C 174.508 224.236,184.528 224.724,188.424 226.847 M225.973 225.386 C 228.873 226.196,227.747 226.920,224.438 226.373 C 218.144 225.332,211.728 227.887,206.561 233.493 C 203.876 236.406,203.378 235.684,205.802 232.392 C 210.491 226.022,218.409 223.272,225.973 225.386 M185.734 230.941 C 189.989 232.826,191.022 234.057,187.133 232.607 C 184.575 231.654,182.558 231.353,178.659 231.342 C 173.822 231.329,173.573 231.271,174.104 230.274 C 174.850 228.874,181.994 229.284,185.734 230.941 M226.167 230.350 C 227.005 231.275,226.759 231.330,221.638 231.360 C 217.445 231.385,215.537 231.666,213.180 232.606 C 209.587 234.039,208.955 233.890,211.716 232.261 C 216.635 229.359,224.347 228.339,226.167 230.350 M245.524 242.098 C 240.207 251.635,229.944 262.021,217.902 270.051 C 212.267 273.809,201.290 279.720,199.946 279.720 C 197.191 279.720,176.414 267.217,175.773 265.173 C 175.592 264.594,175.922 264.694,176.846 265.498 C 180.926 269.048,197.306 278.042,199.693 278.042 C 208.215 278.042,235.675 256.229,244.213 242.678 C 246.189 239.542,247.199 239.095,245.524 242.098 M349.312 244.336 C 349.146 244.874,348.776 245.752,348.491 246.286 C 347.341 248.439,347.896 249.744,350.632 251.322 L 353.287 252.855 349.995 252.721 L 346.703 252.587 345.458 256.224 C 343.738 261.244,339.614 270.871,338.747 271.888 C 336.898 274.059,335.554 277.613,336.316 278.318 C 337.014 278.965,358.831 290.350,359.372 290.350 C 359.665 290.350,362.517 284.717,362.517 284.139 C 362.517 283.646,359.198 281.710,353.007 278.592 C 344.453 274.284,344.489 274.314,345.491 272.378 C 346.526 270.375,346.122 270.288,356.446 274.745 C 365.668 278.727,365.622 278.724,367.013 275.478 C 368.227 272.646,368.429 270.769,367.520 270.769 C 365.460 270.769,349.628 263.247,349.967 262.430 C 350.170 261.940,350.463 261.098,350.618 260.559 C 351.088 258.924,360.963 259.188,366.595 260.986 C 372.176 262.769,371.766 262.880,372.900 259.274 C 374.061 255.583,374.039 255.554,368.875 254.033 C 365.917 253.162,363.057 251.627,357.836 248.107 C 350.337 243.051,349.785 242.807,349.312 244.336 M164.790 255.245 L 166.434 257.063 164.615 255.420 C 162.921 253.888,162.540 253.427,162.972 253.427 C 163.069 253.427,163.887 254.245,164.790 255.245 M57.059 262.279 C 54.748 263.410,49.713 265.817,45.870 267.628 C 42.026 269.438,38.794 270.994,38.688 271.084 C 38.268 271.442,39.259 274.479,40.196 275.707 L 41.188 277.009 45.860 274.726 C 51.908 271.770,52.125 272.166,46.475 275.846 C 41.553 279.052,41.570 279.025,42.812 281.426 C 43.835 283.405,43.176 283.381,48.695 281.637 C 54.643 279.758,54.837 280.169,49.201 282.709 C 44.276 284.929,44.270 284.941,46.239 288.811 C 47.296 290.888,47.557 290.838,55.619 286.993 C 64.410 282.801,65.433 282.734,58.999 286.774 C 51.225 291.655,49.868 293.878,51.765 298.620 C 53.889 303.929,58.206 305.836,62.900 303.539 C 66.484 301.786,75.511 295.910,76.556 294.650 C 79.985 290.519,75.478 281.438,69.969 281.376 L 67.972 281.354 69.510 280.519 C 71.454 279.465,71.437 278.905,69.325 274.483 C 67.402 270.457,68.224 270.664,61.958 272.625 C 58.429 273.730,58.642 273.170,62.719 270.624 C 66.497 268.264,66.476 268.402,63.898 263.077 C 62.226 259.624,62.430 259.648,57.059 262.279 M174.827 264.520 C 174.655 264.692,173.955 264.250,173.271 263.538 L 172.028 262.243 173.584 263.225 C 174.440 263.765,174.999 264.348,174.827 264.520 M333.606 282.253 C 329.805 285.249,328.129 291.252,330.394 293.755 C 331.222 294.670,331.141 294.712,329.085 294.436 C 326.396 294.076,324.400 295.640,319.789 301.721 C 318.115 303.928,314.079 308.440,310.820 311.747 C 303.855 318.814,304.199 317.570,307.857 322.468 C 313.534 330.070,313.837 330.702,310.156 327.267 C 308.340 325.571,305.815 323.222,304.546 322.047 L 302.239 319.910 300.350 321.531 C 299.311 322.423,296.888 324.242,294.965 325.573 C 293.042 326.905,291.469 328.277,291.469 328.623 C 291.469 329.154,305.091 347.805,306.584 349.318 C 307.066 349.807,312.168 346.108,312.168 345.270 C 312.168 345.056,309.372 341.155,305.955 336.601 C 302.539 332.048,299.832 328.233,299.941 328.125 C 300.051 328.016,303.871 331.064,308.430 334.898 C 317.788 342.766,317.101 342.599,321.887 338.179 L 325.173 335.144 318.872 325.754 C 315.407 320.589,313.282 316.993,314.150 317.762 C 315.018 318.531,318.618 321.867,322.150 325.175 C 328.642 331.255,329.633 331.870,330.486 330.345 C 330.746 329.882,332.422 327.999,334.212 326.162 L 337.465 322.822 335.384 320.802 L 333.303 318.781 331.547 320.476 L 329.790 322.171 327.835 320.568 L 325.879 318.966 327.135 317.629 C 328.765 315.894,328.724 315.492,326.717 313.570 L 325.042 311.966 323.744 313.186 C 322.088 314.741,321.608 314.718,320.000 313.007 L 318.686 311.608 319.902 310.314 C 321.421 308.697,321.418 308.379,319.860 306.635 C 317.890 304.430,319.880 305.870,330.706 314.483 C 338.697 320.841,338.911 320.962,339.832 319.664 C 340.246 319.079,341.114 317.996,341.761 317.257 C 343.488 315.283,343.332 314.980,338.741 311.384 C 334.739 308.249,333.800 307.133,335.164 307.133 C 335.694 307.133,339.874 310.104,340.699 311.067 C 341.323 311.796,343.786 313.287,344.365 313.287 C 344.706 313.287,345.785 312.173,346.763 310.811 L 348.541 308.335 346.159 306.428 C 341.030 302.322,339.720 301.538,337.989 301.538 C 336.584 301.538,336.224 301.305,336.224 300.394 C 336.224 299.765,335.569 298.595,334.769 297.795 C 333.735 296.761,333.614 296.470,334.350 296.787 C 336.789 297.839,338.854 297.648,342.820 296.003 C 347.104 294.225,349.268 294.296,350.014 296.240 C 350.573 297.697,349.807 297.811,347.796 296.567 C 345.323 295.039,345.504 294.984,343.523 297.863 C 341.280 301.123,341.306 301.215,344.936 302.932 C 348.840 304.779,350.565 304.477,353.281 301.472 C 360.921 293.014,352.539 283.643,341.855 288.697 C 338.101 290.472,335.105 290.307,335.105 288.324 C 335.105 287.351,335.345 287.358,337.343 288.392 C 338.937 289.216,342.378 286.000,342.378 283.687 C 342.378 281.354,336.057 280.321,333.606 282.253 M72.168 288.671 C 72.168 288.979,71.934 289.231,71.648 289.231 C 71.363 289.231,70.796 289.547,70.390 289.934 C 69.609 290.676,60.465 296.463,58.322 297.571 C 54.170 299.717,58.051 296.173,63.928 292.452 C 70.577 288.242,72.168 287.512,72.168 288.671 M73.497 297.934 C 70.151 300.567,66.424 303.525,65.217 304.508 C 64.009 305.490,62.189 306.923,61.172 307.692 C 58.823 309.468,58.860 309.605,63.217 315.247 C 68.617 322.241,69.308 322.331,76.353 316.967 C 90.085 306.509,90.236 306.091,83.485 297.203 C 79.741 292.274,80.789 292.197,73.497 297.934 M329.155 302.139 C 329.966 302.776,330.629 303.690,330.629 304.168 C 330.629 305.135,327.252 302.874,326.837 301.630 C 326.504 300.631,327.522 300.854,329.155 302.139 M81.119 302.938 C 81.119 303.350,69.220 312.727,68.697 312.727 C 67.469 312.727,68.655 311.422,72.581 308.451 C 74.962 306.649,77.540 304.608,78.310 303.916 C 79.581 302.773,81.119 302.237,81.119 302.938 M88.008 307.876 C 80.176 315.783,77.227 318.402,76.595 318.012 C 76.162 317.744,76.055 317.822,76.304 318.225 C 76.531 318.592,75.624 319.852,74.152 321.214 C 70.871 324.251,70.879 324.292,75.697 329.285 L 79.785 333.521 81.851 331.693 C 84.317 329.509,84.357 329.192,82.413 327.163 L 80.910 325.594 82.520 323.914 L 84.130 322.233 85.655 323.695 L 87.181 325.156 89.185 323.557 C 91.530 321.686,91.597 321.346,89.958 319.601 L 88.727 318.291 90.153 316.866 L 91.578 315.440 93.360 317.223 L 95.142 319.005 92.746 321.632 C 87.907 326.939,81.678 334.451,81.678 334.983 C 81.678 335.284,82.830 336.473,84.238 337.627 L 86.798 339.725 88.911 337.662 C 90.073 336.527,91.753 334.612,92.645 333.407 C 94.277 331.200,95.105 330.663,95.105 331.810 C 95.105 332.413,91.436 337.150,89.396 339.183 C 87.996 340.577,88.106 340.978,90.490 343.194 C 93.151 345.668,93.123 345.671,95.874 342.583 C 99.478 338.536,101.313 335.596,100.949 334.450 C 100.701 333.670,100.917 333.427,101.854 333.427 C 103.406 333.427,107.764 329.136,108.274 327.106 C 109.072 323.926,108.379 322.850,101.528 316.632 C 99.995 315.241,97.101 312.335,95.097 310.173 C 90.367 305.073,90.683 305.175,88.008 307.876 M101.818 324.341 C 101.818 324.979,99.056 327.832,98.439 327.832 C 97.565 327.832,97.811 327.269,99.439 325.544 C 100.950 323.943,101.818 323.504,101.818 324.341 M108.174 329.371 C 106.715 331.448,103.713 335.684,101.503 338.785 C 97.323 344.650,96.224 346.423,96.224 347.298 C 96.224 347.886,101.084 350.598,101.412 350.193 C 101.529 350.048,102.712 348.357,104.040 346.434 C 105.369 344.510,106.505 342.937,106.566 342.937 C 106.626 342.937,105.969 344.999,105.106 347.519 C 103.381 352.553,103.419 352.736,106.626 354.718 C 108.987 356.177,108.864 356.266,113.075 350.063 C 115.005 347.221,116.786 344.643,117.033 344.336 C 119.158 341.690,123.636 334.888,123.636 334.306 C 123.636 333.904,122.658 332.928,121.463 332.137 L 119.290 330.699 118.178 331.923 C 117.567 332.596,116.368 334.222,115.514 335.536 C 113.417 338.764,113.285 338.273,114.890 333.216 L 116.249 328.938 114.221 327.266 C 111.448 324.981,111.195 325.069,108.174 329.371 M287.666 330.869 C 286.652 331.587,285.674 332.321,285.494 332.501 C 285.314 332.682,286.217 334.506,287.502 336.554 C 290.514 341.360,290.121 341.576,285.594 337.601 L 281.908 334.365 279.399 336.134 C 278.019 337.106,276.653 337.902,276.362 337.902 C 275.242 337.902,270.769 340.396,270.769 341.021 C 270.769 341.383,272.810 345.888,275.303 351.033 C 278.475 357.576,279.661 360.563,279.249 360.975 C 278.837 361.387,277.212 358.639,273.838 351.831 C 268.330 340.712,268.928 341.315,265.248 343.180 L 262.435 344.605 263.746 347.547 C 272.134 366.366,275.657 369.546,282.759 364.712 C 287.539 361.458,287.421 359.563,281.712 347.918 C 276.861 338.024,277.507 338.583,285.160 350.903 C 291.363 360.889,291.105 360.739,295.879 357.123 C 295.996 357.034,295.042 355.285,293.757 353.236 C 290.854 348.605,291.162 348.153,294.827 351.665 C 296.388 353.161,297.971 354.556,298.343 354.764 C 299.115 355.196,303.776 352.628,303.776 351.772 C 303.776 351.032,290.291 329.502,289.850 329.538 C 289.663 329.553,288.681 330.152,287.666 330.869 M133.848 344.675 C 132.693 346.553,130.282 350.362,128.491 353.139 C 121.403 364.124,121.458 363.793,126.390 365.702 C 128.745 366.613,128.892 366.611,129.467 365.659 C 130.890 363.298,131.340 362.908,132.240 363.253 C 133.093 363.580,133.100 363.785,132.320 365.650 C 131.852 366.772,131.469 367.766,131.469 367.859 C 131.469 368.354,137.877 370.871,138.203 370.503 C 138.414 370.265,138.854 369.063,139.180 367.832 C 139.506 366.601,140.810 361.944,142.077 357.483 C 146.065 343.440,146.179 345.322,141.195 342.990 C 136.319 340.708,136.281 340.716,133.848 344.675 M147.162 347.516 C 146.585 348.900,139.779 370.297,139.655 371.119 C 139.558 371.757,144.159 373.334,145.083 372.980 C 145.474 372.830,146.529 370.226,147.428 367.193 C 149.262 361.006,149.914 361.405,148.572 367.892 C 147.311 373.991,147.877 375.385,151.614 375.385 C 151.832 375.385,153.221 372.741,154.699 369.509 C 157.949 362.406,158.303 362.326,156.095 369.197 C 153.775 376.416,153.740 376.005,156.765 377.102 C 160.108 378.314,159.750 378.862,163.378 366.993 C 168.877 349.001,169.051 350.220,164.213 372.867 C 162.925 378.895,162.663 378.492,168.597 379.610 C 174.751 380.769,175.455 380.605,175.766 377.945 C 176.040 375.591,175.447 374.825,173.348 374.825 C 171.335 374.825,171.136 374.384,171.861 371.527 C 172.453 369.196,172.514 369.145,174.350 369.489 C 176.030 369.805,176.294 369.679,176.813 368.315 C 177.748 365.854,177.286 364.521,175.385 364.194 C 174.462 364.035,173.731 363.593,173.762 363.211 C 173.793 362.830,173.856 361.888,173.902 361.119 C 173.978 359.851,174.217 359.720,176.454 359.720 C 178.817 359.720,180.851 356.329,179.374 354.851 C 178.877 354.355,169.306 352.435,168.601 352.690 C 168.255 352.816,166.292 352.309,164.240 351.564 C 159.169 349.724,159.336 349.655,156.966 354.545 L 154.864 358.881 155.277 355.524 C 156.091 348.897,156.135 349.045,153.007 347.974 C 147.528 346.099,147.745 346.116,147.162 347.516 M248.012 349.826 C 245.468 350.775,245.461 350.802,246.696 354.742 C 248.380 360.117,248.093 360.378,245.224 356.078 C 243.790 353.927,242.381 352.013,242.095 351.823 C 241.410 351.370,237.035 352.670,236.792 353.399 C 236.610 353.946,240.832 370.032,242.614 375.586 L 243.487 378.304 245.800 377.935 C 248.922 377.436,249.224 377.003,248.435 374.161 C 246.269 366.360,246.368 366.151,249.585 371.742 C 251.990 375.921,252.057 375.982,253.906 375.649 C 256.899 375.111,258.596 374.305,258.311 373.559 C 258.165 373.178,257.343 370.350,256.483 367.273 C 250.876 347.200,251.517 348.519,248.012 349.826 M136.191 355.071 C 135.030 358.224,134.570 358.856,133.790 358.374 C 133.440 358.157,133.898 356.834,134.969 354.970 C 137.060 351.329,137.553 351.370,136.191 355.071 M228.153 354.336 C 223.253 355.161,223.587 353.996,224.054 368.609 C 224.509 382.869,224.246 382.141,228.671 381.391 L 231.608 380.894 231.608 378.419 C 231.608 375.172,233.500 374.762,234.085 377.882 C 234.285 378.949,234.628 379.930,234.847 380.063 C 235.621 380.533,241.678 379.181,241.641 378.546 C 241.507 376.216,233.453 353.837,232.727 353.776 C 232.266 353.738,230.207 353.990,228.153 354.336 M180.432 355.371 C 180.123 356.277,177.902 377.755,177.902 379.832 C 177.902 381.303,178.069 381.404,181.076 381.757 C 184.978 382.216,184.946 382.262,185.448 375.562 C 186.006 368.117,187.133 368.781,187.133 376.555 L 187.133 382.378 190.023 382.545 C 193.399 382.741,193.307 382.892,193.852 376.218 C 194.181 372.195,194.099 371.585,193.045 370.245 C 191.898 368.787,191.896 368.744,192.951 368.409 C 195.145 367.713,195.946 362.205,194.344 358.831 C 193.359 356.754,191.851 356.133,186.294 355.518 C 184.601 355.330,182.645 355.060,181.946 354.917 C 181.213 354.768,180.572 354.960,180.432 355.371 M210.629 356.214 C 205.969 357.381,205.063 360.090,205.879 370.417 C 206.757 381.512,207.835 383.218,213.971 383.215 C 219.741 383.211,222.657 380.415,222.657 374.886 C 222.657 371.507,222.358 371.286,218.452 371.774 L 215.385 372.157 215.385 375.136 C 215.385 378.272,214.678 379.451,213.801 377.778 C 213.155 376.547,212.332 361.705,212.862 360.848 C 213.719 359.461,214.825 361.525,214.825 364.511 C 214.825 368.094,215.005 368.232,219.053 367.756 L 222.238 367.382 221.946 364.169 C 221.329 357.360,217.317 354.540,210.629 356.214 M196.761 356.712 C 196.542 356.931,196.364 362.984,196.364 370.163 L 196.364 383.217 199.660 383.217 C 203.765 383.217,203.467 384.328,203.407 369.231 L 203.357 356.643 200.258 356.479 C 198.553 356.389,196.980 356.494,196.761 356.712 M188.531 362.472 C 188.531 364.715,188.011 365.874,187.003 365.874 C 186.350 365.874,186.235 365.470,186.503 364.126 C 186.696 363.164,186.853 362.031,186.853 361.608 C 186.853 361.185,187.231 360.839,187.692 360.839 C 188.247 360.839,188.531 361.394,188.531 362.472 M232.157 370.210 C 232.163 370.594,231.790 370.909,231.329 370.909 C 230.667 370.909,230.500 370.170,230.540 367.413 L 230.590 363.916 231.368 366.713 C 231.796 368.252,232.151 369.825,232.157 370.210 " stroke="none" fill="#ffffff80" fill-rule="evenodd"></path></g></svg>