<svg id="svg" version="1.1" xmlns="http://www.w3.org/2000/svg" xmlns:xlink="http://www.w3.org/1999/xlink" width="400" height="401.25984251968504" viewBox="0, 0, 400,401.25984251968504"><g id="svgg"><path id="path0" d="M98.886 8.272 C 94.908 10.743,88.819 14.462,85.354 16.538 C 81.890 18.613,77.287 21.481,75.126 22.912 L 71.197 25.512 71.199 96.378 C 71.200 135.354,71.409 167.546,71.663 167.916 C 72.084 168.527,74.517 169.986,81.575 173.860 C 82.961 174.620,86.504 176.606,89.449 178.272 C 92.394 179.939,103.732 186.252,114.646 192.301 C 125.559 198.351,135.764 204.015,137.323 204.887 C 140.456 206.640,154.120 214.242,159.055 216.978 C 163.997 219.718,163.780 218.782,163.780 237.266 L 163.780 253.819 167.402 256.475 C 169.394 257.937,175.276 262.286,180.472 266.141 C 185.669 269.995,192.748 275.242,196.204 277.800 C 199.659 280.359,202.919 282.417,203.448 282.375 C 206.304 282.147,244.062 259.627,244.531 257.871 C 244.796 256.881,244.939 246.756,244.848 235.370 C 244.741 221.828,244.909 214.396,245.334 213.881 C 245.920 213.171,255.996 207.892,300.157 185.160 C 307.780 181.236,318.551 175.686,324.094 172.827 L 334.173 167.627 333.970 125.546 C 333.859 102.401,333.575 70.995,333.340 55.754 L 332.913 28.044 323.465 21.560 C 305.971 9.556,297.404 3.780,297.094 3.780 C 296.924 3.780,294.476 5.197,291.654 6.929 C 288.831 8.661,286.419 10.079,286.294 10.079 C 285.867 10.079,262.995 24.099,262.163 24.870 C 261.496 25.489,264.262 27.558,276.337 35.472 C 284.588 40.880,291.693 45.611,292.126 45.984 C 292.743 46.517,292.913 57.325,292.913 96.058 L 292.913 145.453 291.496 146.474 C 290.357 147.295,275.784 156.246,257.953 167.077 C 255.421 168.614,235.943 180.521,220.918 189.715 C 216.486 192.427,212.612 194.646,212.309 194.646 C 212.006 194.646,211.664 194.870,211.549 195.145 C 210.295 198.126,204.764 198.977,200.945 196.777 C 199.386 195.878,190.031 190.737,180.157 185.352 C 170.283 179.967,161.638 175.203,160.945 174.765 C 160.252 174.327,155.008 171.432,149.291 168.330 C 143.575 165.228,133.228 159.586,126.299 155.792 L 113.701 148.893 113.539 99.346 L 113.378 49.799 116.689 47.257 C 118.510 45.858,120.283 44.499,120.630 44.236 C 120.976 43.972,123.953 41.797,127.244 39.400 C 139.580 30.419,144.882 26.340,144.882 25.828 C 144.882 25.537,141.976 23.623,138.425 21.573 C 134.874 19.522,128.142 15.626,123.465 12.915 C 104.556 1.953,108.009 2.605,98.886 8.272 M192.747 11.597 C 188.075 14.511,173.055 23.847,159.370 32.345 C 145.685 40.843,132.433 49.080,129.921 50.651 L 125.354 53.507 125.354 96.632 L 125.354 139.757 127.087 140.967 C 128.039 141.633,135.197 146.012,142.992 150.698 C 169.877 166.861,199.374 184.721,200.613 185.588 C 201.296 186.066,202.356 186.457,202.969 186.457 C 204.563 186.457,267.826 146.786,267.551 145.959 C 267.345 145.343,258.357 139.991,247.786 134.191 L 243.919 132.069 233.298 138.374 C 227.457 141.842,218.661 147.134,213.753 150.135 C 204.335 155.892,203.840 156.084,201.872 154.745 C 201.189 154.280,198.646 152.825,196.220 151.512 C 193.795 150.199,190.394 148.346,188.661 147.395 C 186.929 146.443,180.976 143.184,175.433 140.153 C 163.069 133.392,161.712 132.645,154.803 128.808 L 149.291 125.747 149.291 97.632 L 149.291 69.517 154.488 66.642 C 157.346 65.061,161.953 62.496,164.724 60.943 C 167.496 59.391,171.181 57.330,172.913 56.364 C 174.646 55.398,179.323 52.761,183.307 50.505 C 187.291 48.248,192.110 45.548,194.016 44.506 C 195.921 43.463,198.331 42.095,199.370 41.465 C 201.988 39.879,202.008 39.884,209.269 43.888 C 212.832 45.854,217.874 48.634,220.472 50.068 C 223.071 51.501,228.977 54.740,233.598 57.267 L 241.999 61.860 252.181 56.653 C 266.376 49.394,269.840 47.493,270.040 46.854 C 270.135 46.549,265.895 43.760,260.618 40.657 C 255.341 37.554,247.339 32.848,242.835 30.200 C 238.331 27.552,227.361 21.091,218.457 15.842 C 209.553 10.593,202.037 6.299,201.755 6.299 C 201.472 6.299,197.419 8.683,192.747 11.597 M198.740 52.178 C 197.701 52.773,196.142 53.715,195.276 54.271 C 194.409 54.827,186.398 59.609,177.473 64.896 L 161.244 74.510 161.410 97.241 L 161.575 119.972 165.669 122.248 C 167.921 123.499,173.591 126.726,178.268 129.418 C 182.945 132.111,190.513 136.410,195.086 138.971 L 203.401 143.629 216.503 135.665 C 223.710 131.284,230.457 127.184,231.496 126.554 C 232.535 125.923,234.305 124.939,235.428 124.367 C 237.903 123.105,237.843 122.993,232.908 119.625 C 230.746 118.149,227.231 115.746,225.097 114.285 L 221.217 111.629 215.333 115.988 C 212.097 118.386,207.800 121.639,205.785 123.217 C 203.769 124.795,201.760 125.948,201.319 125.779 C 200.600 125.503,191.494 119.664,182.025 113.408 C 180.107 112.141,178.046 110.916,177.445 110.685 C 176.448 110.303,176.368 109.078,176.523 96.596 L 176.693 82.925 186.259 77.451 C 191.521 74.441,197.058 71.255,198.564 70.373 L 201.302 68.768 210.726 75.014 C 221.241 81.983,220.531 81.686,222.860 80.091 C 225.871 78.030,235.667 72.441,236.269 72.441 C 238.182 72.441,236.844 71.410,229.921 67.549 C 228.362 66.679,225.102 64.830,222.677 63.440 C 220.252 62.051,216.425 59.865,214.173 58.583 C 211.921 57.301,208.045 55.076,205.559 53.638 C 203.073 52.200,200.947 51.040,200.835 51.060 C 200.722 51.080,199.780 51.583,198.740 52.178 M87.331 301.987 C 77.849 305.517,75.077 320.473,82.434 328.404 C 90.351 336.939,104.664 332.615,107.084 320.956 C 109.804 307.857,99.119 297.597,87.331 301.987 M216.507 301.938 C 207.032 304.866,204.452 322.199,212.408 329.471 C 219.576 336.024,233.510 331.850,233.919 323.027 L 234.016 320.945 229.921 320.780 C 225.852 320.615,225.821 320.627,224.882 322.669 C 221.317 330.423,215.598 320.015,218.635 311.301 C 219.819 307.906,223.995 307.848,224.669 311.218 C 225.352 314.633,234.331 315.402,234.331 312.045 C 234.331 304.408,225.223 299.244,216.507 301.938 M50.394 302.497 C 50.394 302.946,52.136 306.288,54.265 309.924 C 56.394 313.560,58.518 317.244,58.985 318.110 C 59.539 319.138,59.836 321.929,59.839 326.142 L 59.843 332.598 63.780 332.589 C 69.290 332.575,69.353 332.499,69.536 325.605 C 69.709 319.090,69.985 318.297,75.538 308.346 C 79.475 301.292,79.545 301.732,74.488 301.735 L 70.236 301.737 68.107 305.854 C 65.601 310.701,65.195 310.695,62.588 305.779 L 60.610 302.047 55.502 301.864 C 51.646 301.726,50.394 301.881,50.394 302.497 M111.497 313.543 C 111.498 329.888,113.338 332.722,124.014 332.820 C 134.681 332.917,136.693 329.860,136.693 313.553 L 136.693 301.732 132.980 301.732 L 129.266 301.732 128.981 304.409 C 128.824 305.882,128.643 310.772,128.578 315.276 C 128.456 323.820,128.056 325.039,125.374 325.039 C 121.941 325.039,121.575 323.820,121.575 312.405 L 121.575 301.732 116.535 301.732 L 111.496 301.732 111.497 313.543 M139.970 305.654 L 140.157 309.606 142.992 309.921 L 145.827 310.236 145.999 321.466 L 146.171 332.696 150.723 332.490 L 155.276 332.283 155.448 321.102 L 155.620 309.921 158.428 309.921 C 161.605 309.921,162.148 309.045,161.776 304.507 L 161.575 302.047 150.678 301.875 L 139.782 301.702 139.970 305.654 M164.829 302.152 C 164.220 302.762,164.332 330.871,164.948 331.842 C 165.312 332.417,166.764 332.604,169.820 332.472 L 174.173 332.283 174.488 326.614 L 174.803 320.945 177.638 320.945 L 180.472 320.945 180.787 326.614 L 181.102 332.283 185.827 332.283 L 190.551 332.283 190.720 316.981 L 190.889 301.679 185.996 301.863 L 181.102 302.047 180.919 307.278 L 180.735 312.508 177.769 312.317 L 174.803 312.126 174.620 306.929 L 174.437 301.732 169.843 301.732 C 167.317 301.732,165.060 301.921,164.829 302.152 M238.393 302.533 C 238.224 302.974,238.162 309.838,238.256 317.788 L 238.425 332.241 249.764 332.236 L 261.102 332.231 261.290 328.320 L 261.477 324.409 254.793 324.409 L 248.109 324.409 248.307 322.362 L 248.504 320.315 253.701 320.132 L 258.898 319.949 258.898 316.195 L 258.898 312.441 253.543 312.441 C 248.272 312.441,248.189 312.417,248.189 310.888 C 248.189 309.350,248.251 309.334,254.646 309.156 L 261.102 308.976 261.291 305.354 L 261.480 301.732 250.090 301.732 C 241.456 301.732,238.626 301.926,238.393 302.533 M265.973 316.968 L 266.142 332.203 269.921 332.243 L 273.701 332.283 273.878 324.882 C 274.096 315.820,273.945 315.820,279.505 324.914 L 284.049 332.346 287.064 332.232 C 288.722 332.169,290.575 332.084,291.181 332.043 C 292.198 331.974,292.283 330.800,292.283 316.850 L 292.283 301.732 288.189 301.732 L 284.094 301.732 284.094 308.031 C 284.094 311.496,283.881 314.331,283.621 314.331 C 283.361 314.331,281.348 311.496,279.149 308.031 L 275.150 301.732 270.477 301.732 L 265.804 301.732 265.973 316.968 M295.433 305.476 L 295.433 309.219 298.110 309.413 L 300.787 309.606 301.139 320.945 C 301.333 327.181,301.548 332.283,301.618 332.283 C 301.687 332.283,303.726 332.331,306.148 332.389 C 310.259 332.487,310.555 332.404,310.615 331.129 C 310.650 330.378,310.628 325.937,310.567 321.260 C 310.429 310.761,310.831 309.434,314.127 309.504 L 316.535 309.555 316.723 305.643 L 316.911 301.732 306.172 301.732 L 295.433 301.732 295.433 305.476 M320.283 302.533 C 320.114 302.974,320.052 309.848,320.145 317.809 L 320.315 332.283 325.039 332.237 L 329.764 332.191 330.079 326.574 C 330.520 318.701,331.609 318.667,334.683 326.433 L 336.999 332.283 342.200 332.258 C 348.287 332.228,348.159 332.578,344.839 325.027 C 342.219 319.069,342.222 319.150,344.551 317.492 C 349.931 313.661,347.418 303.468,340.766 302.137 C 336.838 301.352,320.616 301.665,320.283 302.533 M352.546 302.152 C 351.833 302.866,352.053 331.219,352.775 331.665 C 353.132 331.886,358.376 332.115,364.429 332.175 L 375.433 332.283 375.433 328.368 L 375.433 324.454 368.976 324.274 L 362.520 324.094 362.520 322.205 L 362.520 320.315 367.874 320.000 L 373.228 319.685 373.424 316.961 C 373.711 312.971,372.978 312.441,367.167 312.441 C 362.313 312.441,362.205 312.407,362.205 310.888 C 362.205 309.350,362.267 309.334,368.661 309.156 L 375.118 308.976 375.307 305.354 L 375.496 301.732 364.231 301.732 C 358.035 301.732,352.777 301.921,352.546 302.152 M95.267 309.764 C 97.328 312.097,97.359 322.078,95.312 324.126 C 91.704 327.734,88.145 322.343,89.098 314.715 C 89.741 309.566,92.872 307.053,95.267 309.764 M336.011 309.044 C 337.254 309.520,337.314 312.033,336.107 313.034 C 334.491 314.376,330.426 313.613,330.186 311.923 C 329.764 308.940,332.376 307.649,336.011 309.044 M68.793 360.310 C 57.194 365.574,56.928 387.172,68.390 393.062 C 77.064 397.521,87.582 393.616,90.132 384.990 C 91.174 381.464,90.562 381.041,84.724 381.255 C 80.459 381.412,80.309 381.472,80.120 383.104 C 79.765 386.177,75.449 387.528,73.190 385.273 C 71.798 383.882,71.333 372.159,72.578 369.826 C 74.641 365.961,78.517 366.517,79.902 370.877 L 80.749 373.543 85.729 373.543 C 91.424 373.543,91.650 373.220,89.737 367.798 C 87.018 360.092,77.093 356.543,68.793 360.310 M102.904 360.635 C 87.004 368.558,93.108 394.626,110.866 394.633 C 121.631 394.637,126.929 388.720,126.929 376.693 C 126.929 362.294,115.246 354.485,102.904 360.635 M132.913 376.672 L 132.913 394.331 137.008 394.331 L 141.102 394.331 141.111 385.984 C 141.122 375.562,141.577 373.280,142.765 377.694 C 143.222 379.395,144.399 383.764,145.380 387.402 L 147.163 394.016 150.963 394.201 L 154.763 394.386 156.909 385.501 C 159.922 373.028,160.247 373.546,160.575 391.339 L 160.630 394.331 165.679 394.331 L 170.729 394.331 170.561 376.850 L 170.394 359.370 163.408 359.193 L 156.422 359.016 155.010 364.547 C 154.233 367.590,153.230 371.213,152.780 372.598 L 151.961 375.118 151.193 373.228 C 150.770 372.189,149.670 368.646,148.748 365.354 L 147.071 359.370 139.992 359.192 L 132.913 359.014 132.913 376.672 M178.058 359.475 C 177.827 359.706,177.638 367.643,177.638 377.113 L 177.638 394.331 182.047 394.331 L 186.457 394.331 186.457 385.197 C 186.457 374.011,186.829 373.877,189.505 384.095 C 190.661 388.512,191.743 392.622,191.909 393.228 C 192.485 395.334,199.562 394.786,200.039 392.598 C 200.247 391.646,200.654 390.157,200.944 389.291 C 201.234 388.425,202.094 385.091,202.855 381.882 C 204.848 373.481,205.354 374.080,205.354 384.845 L 205.354 394.331 210.719 394.331 L 216.083 394.331 215.915 376.850 L 215.748 359.370 208.519 359.370 L 201.290 359.370 200.242 363.880 C 197.070 377.530,196.845 377.466,192.771 361.732 L 192.077 359.055 185.278 359.055 C 181.538 359.055,178.289 359.244,178.058 359.475 M222.806 359.452 C 222.128 360.129,222.278 385.838,222.970 387.658 C 225.981 395.578,242.311 397.718,248.355 390.984 C 251.000 388.038,251.381 385.469,251.195 371.851 L 251.024 359.370 247.310 359.178 C 242.356 358.923,242.558 358.388,242.370 372.201 C 242.184 385.879,242.090 386.142,237.397 386.142 C 234.086 386.142,234.052 386.010,233.701 371.969 L 233.386 359.370 228.317 359.189 C 225.530 359.090,223.049 359.208,222.806 359.452 M258.058 359.475 C 257.533 360.000,257.497 391.972,258.020 393.334 C 258.318 394.110,259.366 394.331,262.745 394.331 L 267.087 394.331 267.108 385.354 C 267.132 374.759,266.723 374.675,274.125 386.782 L 278.740 394.330 283.317 394.330 L 287.894 394.331 287.726 376.850 L 287.559 359.370 283.150 359.370 L 278.740 359.370 278.425 367.088 L 278.110 374.806 273.181 366.931 L 268.252 359.055 263.365 359.055 C 260.677 359.055,258.289 359.244,258.058 359.475 M295.246 359.452 C 295.003 359.696,294.803 367.654,294.803 377.137 L 294.803 394.380 300.315 394.198 L 305.827 394.016 305.827 376.693 L 305.827 359.370 300.758 359.189 C 297.971 359.090,295.490 359.208,295.246 359.452 M310.355 359.462 C 310.116 359.700,309.921 361.832,309.921 364.199 L 309.921 368.504 313.386 368.504 L 316.850 368.504 316.850 381.417 L 316.850 394.331 322.192 394.331 L 327.533 394.331 327.704 381.314 L 327.874 368.297 331.024 368.243 L 334.173 368.189 334.173 363.780 L 334.173 359.370 322.481 359.199 C 316.050 359.105,310.593 359.223,310.355 359.462 M336.782 359.540 C 336.617 359.807,338.209 362.996,340.318 366.627 C 348.353 380.454,347.692 378.637,347.705 386.929 L 347.717 394.331 353.006 394.331 L 358.296 394.331 358.518 386.553 C 358.646 382.084,359.041 378.399,359.448 377.892 C 359.837 377.406,361.218 375.024,362.516 372.598 C 363.814 370.173,365.834 366.445,367.005 364.314 C 369.882 359.078,369.872 359.055,364.715 359.055 C 359.766 359.055,359.955 358.897,356.535 365.893 C 354.588 369.876,354.077 369.905,352.113 366.142 C 351.254 364.496,350.409 363.008,350.235 362.835 C 350.061 362.661,349.517 361.740,349.026 360.787 C 348.134 359.055,337.737 357.996,336.782 359.540 M113.761 368.569 C 115.281 370.247,115.865 380.677,114.609 383.710 C 112.959 387.695,108.313 387.334,107.052 383.124 C 104.230 373.705,109.013 363.328,113.761 368.569 " stroke="none" fill="#00000080" fill-rule="evenodd"></path></g></svg>