<svg id="svg" version="1.1" xmlns="http://www.w3.org/2000/svg" xmlns:xlink="http://www.w3.org/1999/xlink" width="400" height="401.25984251968504" viewBox="0, 0, 400,401.25984251968504">
<g xmlns="http://www.w3.org/2000/svg" id="svgg"><path id="path0" d="M101.194 7.053 C 98.447 8.733,95.300 10.689,94.200 11.400 C 93.100 12.111,91.361 13.212,90.336 13.846 C 88.104 15.227,81.216 19.477,79.387 20.600 C 78.671 21.040,77.571 21.742,76.943 22.159 C 76.314 22.577,74.960 23.467,73.934 24.138 C 72.606 25.006,72.000 25.702,71.829 26.554 C 71.320 29.102,71.595 167.043,72.111 167.682 C 72.732 168.452,75.611 170.379,78.200 171.758 C 79.300 172.344,81.100 173.323,82.200 173.934 C 83.300 174.545,85.640 175.822,87.400 176.771 C 89.160 177.720,91.770 179.180,93.200 180.015 C 94.630 180.850,98.770 183.167,102.400 185.163 C 106.030 187.160,109.450 189.062,110.000 189.391 C 110.550 189.720,111.771 190.363,112.712 190.819 C 113.654 191.275,115.274 192.158,116.312 192.782 C 118.523 194.110,129.700 200.422,132.600 201.980 C 139.332 205.598,147.509 210.166,148.438 210.827 C 149.035 211.252,149.634 211.600,149.769 211.600 C 150.246 211.600,163.004 218.915,163.294 219.355 C 163.456 219.600,163.612 226.910,163.641 235.600 C 163.709 255.665,162.906 253.180,171.200 258.999 C 172.630 260.002,174.610 261.439,175.600 262.193 C 176.590 262.946,178.300 264.202,179.400 264.983 C 182.274 267.022,184.950 268.989,189.449 272.367 C 200.563 280.712,202.427 282.000,203.384 282.000 C 204.255 282.000,208.203 279.901,218.400 274.017 C 219.830 273.192,222.890 271.437,225.200 270.116 C 227.510 268.795,231.558 266.474,234.195 264.957 C 236.833 263.441,239.505 261.976,240.134 261.703 C 240.763 261.430,241.980 260.650,242.838 259.970 L 244.400 258.733 244.400 236.611 C 244.400 210.435,243.152 214.202,253.600 208.853 C 257.890 206.657,264.550 203.221,268.400 201.217 C 272.250 199.214,277.560 196.488,280.200 195.159 C 282.840 193.830,287.160 191.619,289.800 190.247 C 297.544 186.223,309.112 180.266,319.200 175.108 C 324.370 172.465,329.050 169.995,329.600 169.621 C 330.150 169.246,331.172 168.712,331.871 168.433 C 334.922 167.218,334.888 169.357,333.421 71.800 C 332.698 23.720,333.101 28.541,329.600 26.111 C 328.085 25.060,325.829 23.480,324.586 22.600 C 323.343 21.720,321.652 20.550,320.828 20.000 C 319.215 18.923,314.982 16.044,308.600 11.681 C 296.502 3.411,297.404 3.848,295.112 5.139 C 292.070 6.851,288.092 9.226,278.263 15.200 C 274.825 17.290,271.514 19.271,270.906 19.603 C 267.737 21.331,262.400 24.967,262.400 25.396 C 262.400 26.020,266.932 29.181,277.277 35.772 C 279.325 37.077,281.591 38.652,282.314 39.272 C 283.037 39.893,283.778 40.400,283.962 40.400 C 284.547 40.400,292.183 45.650,292.600 46.339 C 293.093 47.155,293.375 143.012,292.890 144.886 C 292.566 146.135,289.919 148.087,283.783 151.600 C 282.822 152.150,279.193 154.336,275.718 156.458 C 272.243 158.580,268.838 160.650,268.151 161.058 C 267.465 161.466,265.395 162.730,263.551 163.868 C 261.708 165.005,259.480 166.378,258.600 166.919 C 257.720 167.459,253.539 170.039,249.309 172.651 C 245.079 175.263,240.542 178.030,239.226 178.800 C 235.840 180.781,232.085 183.054,230.109 184.318 C 229.180 184.913,226.930 186.285,225.109 187.368 C 223.289 188.450,220.540 190.112,219.000 191.061 C 217.460 192.010,215.390 193.269,214.400 193.858 C 213.410 194.447,211.370 195.723,209.866 196.695 C 205.515 199.506,203.748 199.157,195.200 193.795 C 194.430 193.312,192.450 192.201,190.800 191.327 C 187.807 189.740,175.632 183.099,172.600 181.398 C 168.460 179.077,162.370 175.756,160.199 174.637 C 158.878 173.957,157.230 172.995,156.537 172.500 C 155.844 172.005,155.148 171.600,154.991 171.600 C 154.835 171.600,152.882 170.586,150.653 169.348 C 148.424 168.109,144.890 166.196,142.800 165.097 C 140.710 163.998,138.820 162.958,138.600 162.786 C 138.380 162.615,137.210 161.946,136.000 161.300 C 134.790 160.655,130.877 158.523,127.305 156.563 C 123.733 154.603,119.468 152.280,117.827 151.400 C 116.186 150.520,114.474 149.457,114.022 149.038 C 113.201 148.277,113.200 148.199,113.200 98.969 L 113.200 49.662 114.844 48.255 C 115.749 47.481,117.234 46.343,118.144 45.726 C 119.055 45.110,120.880 43.792,122.200 42.798 C 123.520 41.804,125.320 40.497,126.200 39.894 C 127.080 39.290,128.610 38.169,129.600 37.402 C 130.590 36.635,131.850 35.691,132.400 35.304 C 133.843 34.288,139.845 29.836,142.300 27.958 C 145.194 25.746,145.078 25.522,139.400 22.392 C 137.638 21.420,133.183 18.816,131.800 17.949 C 131.140 17.535,130.060 16.933,129.400 16.610 C 128.740 16.288,126.580 15.032,124.600 13.819 C 122.620 12.606,119.979 11.093,118.731 10.457 C 117.483 9.820,115.953 8.944,115.331 8.510 C 113.466 7.210,107.361 4.000,106.754 4.000 C 106.443 4.000,103.941 5.374,101.194 7.053 M88.600 301.809 C 87.500 302.115,86.452 302.373,86.270 302.382 C 85.279 302.435,81.088 307.164,79.915 309.554 C 77.875 313.709,77.967 320.488,80.120 324.691 C 85.737 335.657,101.984 334.924,106.216 323.515 C 107.622 319.723,107.356 312.510,105.683 309.111 C 102.541 302.722,95.756 299.822,88.600 301.809 M51.079 301.854 C 50.491 302.442,50.877 303.457,53.200 307.432 C 54.520 309.690,55.600 311.628,55.600 311.738 C 55.600 311.849,56.545 313.519,57.700 315.451 L 59.800 318.962 59.926 325.181 C 60.076 332.539,59.716 331.986,64.395 332.037 C 69.254 332.089,69.200 332.159,69.200 325.738 C 69.200 320.020,69.575 318.597,72.402 313.600 C 78.150 303.438,78.601 302.220,76.750 301.850 C 71.677 300.835,70.434 301.435,68.246 305.949 C 65.706 311.189,65.482 311.184,62.439 305.800 L 60.178 301.800 55.768 301.688 C 53.343 301.626,51.232 301.701,51.079 301.854 M113.000 301.951 L 111.800 302.208 111.693 313.203 C 111.531 329.960,113.029 332.200,124.400 332.200 L 129.800 332.200 132.059 330.714 C 136.412 327.850,137.020 325.321,136.684 311.465 C 136.430 300.936,136.760 301.800,132.986 301.800 C 128.916 301.800,129.133 301.229,128.931 312.467 C 128.834 317.820,128.669 322.617,128.563 323.126 C 128.115 325.292,123.104 325.664,122.007 323.612 C 121.762 323.156,121.600 318.873,121.600 312.888 C 121.600 301.032,121.813 301.573,117.169 301.647 C 115.536 301.673,113.660 301.810,113.000 301.951 M140.900 302.009 C 140.082 302.341,140.001 302.638,140.006 305.287 C 140.014 308.943,140.057 308.999,143.200 309.437 L 145.800 309.800 146.035 320.800 C 146.164 326.850,146.299 331.845,146.335 331.900 C 146.371 331.955,148.268 332.000,150.550 332.000 L 154.700 332.000 154.950 330.750 C 155.088 330.063,155.200 325.225,155.200 319.999 C 155.200 309.128,155.026 309.649,158.769 309.309 L 161.167 309.092 161.439 307.282 C 161.588 306.286,161.550 304.645,161.355 303.636 L 161.000 301.800 151.400 301.722 C 146.120 301.679,141.395 301.808,140.900 302.009 M166.000 301.935 L 165.000 302.236 164.895 316.435 C 164.770 333.338,164.353 331.974,169.672 332.037 C 174.674 332.095,174.400 332.401,174.400 326.750 C 174.400 320.690,174.543 320.398,177.514 320.406 C 180.991 320.415,180.970 320.382,181.200 326.485 L 181.400 331.800 185.775 331.800 L 190.149 331.800 190.495 330.467 C 191.054 328.309,190.701 302.940,190.103 302.343 C 189.427 301.668,182.584 301.349,181.850 301.959 C 181.463 302.280,181.248 303.777,181.124 307.013 C 180.916 312.444,180.813 312.603,177.547 312.559 C 174.466 312.517,174.414 312.423,174.406 306.924 C 174.402 303.853,174.248 302.353,173.915 302.147 C 173.240 301.730,167.217 301.568,166.000 301.935 M94.526 308.860 C 97.614 310.485,97.879 323.152,94.860 324.768 C 91.491 326.571,89.134 323.942,88.870 318.087 C 88.555 311.072,91.037 307.023,94.526 308.860 " stroke="none" fill="#f30909" fill-rule="evenodd"/><path id="path1" d="M188.800 14.212 C 181.870 18.503,175.569 22.422,174.797 22.920 C 173.760 23.590,152.372 36.849,147.200 40.028 C 144.280 41.823,126.486 52.825,126.097 53.076 C 125.524 53.445,125.319 139.489,125.890 140.037 C 126.060 140.201,130.070 142.679,134.800 145.544 C 139.530 148.408,145.719 152.158,148.554 153.876 C 151.388 155.594,157.012 158.980,161.051 161.400 C 167.477 165.250,183.523 174.963,185.200 176.018 C 198.807 184.576,203.763 187.049,204.800 185.800 C 205.074 185.470,205.431 185.200,205.594 185.200 C 205.756 185.200,207.254 184.300,208.923 183.200 C 210.591 182.100,212.051 181.200,212.166 181.200 C 212.282 181.200,213.147 180.675,214.088 180.032 C 215.030 179.390,218.500 177.211,221.800 175.191 C 225.100 173.171,228.819 170.816,230.064 169.959 C 231.309 169.101,232.435 168.400,232.567 168.400 C 232.699 168.400,234.291 167.443,236.104 166.273 C 237.917 165.103,241.110 163.090,243.200 161.801 C 245.290 160.511,247.915 158.869,249.034 158.151 C 250.801 157.017,259.967 151.305,265.695 147.770 C 268.384 146.110,268.164 145.836,260.798 141.659 C 257.169 139.602,252.079 136.677,249.486 135.159 C 246.894 133.642,244.499 132.400,244.165 132.400 C 243.502 132.400,239.387 134.567,238.369 135.451 C 238.021 135.753,237.633 136.000,237.506 136.000 C 237.379 136.000,235.081 137.350,232.400 139.000 C 229.719 140.650,227.466 142.000,227.393 142.000 C 227.320 142.000,225.085 143.350,222.426 145.000 C 219.767 146.650,217.414 148.000,217.196 148.000 C 216.978 148.000,216.800 148.180,216.800 148.400 C 216.800 148.620,216.629 148.800,216.420 148.800 C 216.211 148.800,215.240 149.340,214.262 150.000 C 213.284 150.660,212.377 151.200,212.247 151.200 C 212.116 151.200,210.416 152.190,208.470 153.400 C 206.523 154.610,204.603 155.600,204.203 155.600 C 203.628 155.600,194.181 150.672,185.800 146.000 C 182.952 144.412,180.048 142.810,178.000 141.697 C 176.790 141.040,174.180 139.611,172.200 138.522 C 170.220 137.432,164.550 134.322,159.600 131.609 C 154.650 128.897,150.284 126.481,149.897 126.241 C 149.236 125.830,149.201 124.134,149.297 97.613 L 149.400 69.421 153.200 67.270 C 155.290 66.087,158.170 64.489,159.600 63.718 C 161.030 62.946,162.380 62.177,162.600 62.008 C 162.820 61.838,164.260 61.018,165.800 60.185 C 167.340 59.352,171.840 56.831,175.800 54.584 C 179.760 52.336,183.990 49.955,185.200 49.292 C 187.192 48.201,193.360 44.727,198.000 42.082 C 202.461 39.538,201.090 39.271,210.756 44.574 C 214.850 46.820,219.583 49.412,221.272 50.332 C 222.962 51.253,226.090 52.995,228.224 54.203 C 230.357 55.411,232.162 56.400,232.234 56.400 C 232.306 56.400,233.271 56.934,234.378 57.587 C 235.485 58.240,237.649 59.425,239.186 60.220 L 241.980 61.666 246.490 59.391 C 250.367 57.435,263.209 50.830,268.200 48.223 C 269.080 47.764,269.800 47.127,269.800 46.808 C 269.800 46.333,262.365 41.580,258.400 39.520 C 257.850 39.234,255.992 38.145,254.271 37.100 C 252.549 36.055,251.092 35.200,251.031 35.200 C 250.970 35.200,249.228 34.179,247.160 32.932 C 245.092 31.684,240.790 29.139,237.600 27.275 C 231.207 23.539,217.471 15.417,208.272 9.934 C 205.011 7.990,202.131 6.402,201.872 6.405 C 201.612 6.408,195.730 9.921,188.800 14.212 M230.400 74.000 C 229.571 74.454,229.276 74.773,229.676 74.783 C 230.048 74.792,230.464 74.620,230.600 74.400 C 230.736 74.180,231.197 74.000,231.624 74.000 C 232.051 74.000,232.400 73.820,232.400 73.600 C 232.400 73.041,232.010 73.119,230.400 74.000 M223.275 114.425 C 223.371 114.714,223.686 115.029,223.975 115.125 C 224.275 115.225,224.425 115.075,224.325 114.775 C 224.229 114.486,223.914 114.171,223.625 114.075 C 223.325 113.975,223.175 114.125,223.275 114.425 M218.252 133.409 C 218.061 133.906,218.164 133.941,218.809 133.595 C 219.736 133.099,219.824 132.800,219.043 132.800 C 218.736 132.800,218.380 133.074,218.252 133.409 M208.900 138.687 C 208.213 138.934,208.269 139.600,208.976 139.600 C 209.639 139.600,210.163 138.940,209.707 138.682 C 209.538 138.586,209.175 138.589,208.900 138.687 M217.800 301.564 C 204.684 305.228,204.206 327.910,217.160 331.903 C 224.995 334.318,234.554 328.865,233.928 322.337 L 233.800 321.000 229.753 320.887 L 225.705 320.773 225.447 322.067 C 224.887 324.864,221.625 326.213,219.322 324.601 C 216.818 322.847,217.109 310.829,219.700 309.015 C 221.977 307.420,225.200 309.138,225.200 311.945 C 225.200 313.536,226.008 313.813,230.027 313.600 L 233.800 313.400 233.927 311.844 C 234.465 305.282,225.331 299.460,217.800 301.564 M238.844 302.147 C 238.519 302.538,238.420 306.839,238.495 317.247 L 238.600 331.800 250.000 331.800 L 261.400 331.800 261.440 329.720 C 261.463 328.577,261.370 326.957,261.234 326.120 L 260.988 324.600 254.594 324.400 L 248.200 324.200 248.200 322.200 L 248.200 320.200 253.400 320.000 L 258.600 319.800 258.600 316.400 L 258.600 313.000 254.200 312.901 C 247.985 312.762,247.929 312.742,248.078 310.687 L 248.200 309.000 254.400 308.894 C 259.653 308.804,260.676 308.685,261.100 308.117 C 261.740 307.260,261.755 302.715,261.120 302.080 C 260.378 301.338,239.463 301.401,238.844 302.147 M266.495 301.933 C 266.100 302.184,266.013 305.474,266.095 317.027 L 266.200 331.800 269.707 331.916 C 273.951 332.056,273.594 332.744,273.709 324.193 C 273.830 315.141,274.223 315.244,280.403 325.955 C 280.735 326.530,281.696 328.131,282.540 329.514 L 284.075 332.028 287.937 331.914 L 291.800 331.800 291.905 316.948 L 292.010 302.096 291.105 301.853 C 289.305 301.371,284.917 301.577,284.428 302.166 C 284.107 302.553,283.982 304.586,284.033 308.578 C 284.133 316.289,284.217 316.258,280.205 310.000 C 275.638 302.879,275.459 302.614,274.844 302.100 C 274.173 301.538,267.333 301.401,266.495 301.933 M295.867 301.867 C 295.720 302.013,295.600 303.723,295.600 305.667 L 295.600 309.200 297.924 309.200 C 301.764 309.200,301.579 308.619,301.697 321.000 L 301.800 331.800 305.967 331.915 C 311.226 332.060,310.817 333.038,310.762 320.450 C 310.709 308.444,310.466 309.216,314.300 309.206 L 316.800 309.200 316.800 305.643 C 316.800 302.768,316.679 302.039,316.167 301.843 C 315.303 301.511,296.200 301.533,295.867 301.867 M320.895 301.933 C 320.500 302.184,320.413 305.474,320.495 317.027 L 320.600 331.800 325.200 331.800 L 329.800 331.800 329.911 326.540 C 330.091 318.041,331.589 317.972,334.864 326.313 L 337.018 331.800 340.009 332.000 C 348.039 332.537,347.945 332.659,344.935 325.648 C 342.526 320.034,342.353 318.785,343.850 317.804 C 350.285 313.588,347.904 304.046,339.923 302.066 C 337.789 301.536,321.696 301.424,320.895 301.933 M352.880 302.080 C 352.372 302.588,352.162 329.272,352.652 331.100 L 352.893 332.000 364.004 332.000 C 376.680 332.000,375.600 332.368,375.600 328.047 C 375.600 324.351,375.694 324.400,368.563 324.400 C 362.017 324.400,362.000 324.394,362.000 322.200 C 362.000 320.040,362.102 320.000,367.635 320.000 L 372.785 320.000 373.045 318.964 C 373.325 317.849,373.022 313.883,372.606 313.210 C 372.456 312.968,370.434 312.800,367.656 312.800 C 362.602 312.800,362.000 312.587,362.000 310.800 C 362.000 308.955,362.531 308.800,368.866 308.800 C 375.701 308.800,375.600 308.859,375.600 304.906 C 375.600 301.458,376.100 301.600,364.000 301.600 C 356.258 301.600,353.229 301.731,352.880 302.080 M336.839 309.250 C 337.431 310.183,337.238 312.243,336.500 312.884 C 335.585 313.680,331.102 314.142,330.467 313.507 C 329.831 312.871,329.858 308.931,330.500 308.641 C 331.473 308.200,336.479 308.682,336.839 309.250 M168.400 360.111 C 168.400 360.172,168.760 360.530,169.200 360.907 C 169.961 361.559,170.000 361.554,170.000 360.796 C 170.000 360.267,169.732 360.000,169.200 360.000 C 168.760 360.000,168.400 360.050,168.400 360.111 M178.400 361.467 C 178.400 363.181,178.586 363.123,178.933 361.300 C 179.075 360.553,179.014 360.000,178.790 360.000 C 178.576 360.000,178.400 360.660,178.400 361.467 M214.723 361.393 C 214.814 362.167,215.046 362.800,215.240 362.800 C 215.707 362.800,215.421 360.274,214.936 360.112 C 214.728 360.043,214.633 360.617,214.723 361.393 M295.467 360.267 C 295.048 360.685,295.155 362.400,295.600 362.400 C 295.820 362.400,296.000 361.860,296.000 361.200 C 296.000 359.957,295.919 359.815,295.467 360.267 M310.154 360.577 C 309.827 361.429,310.124 362.508,310.742 362.714 C 311.129 362.843,311.210 362.661,311.026 362.081 C 310.842 361.502,311.028 361.086,311.673 360.634 L 312.578 360.000 311.476 360.000 C 310.871 360.000,310.275 360.259,310.154 360.577 M279.334 364.800 C 279.334 366.450,279.405 367.125,279.491 366.300 C 279.578 365.475,279.578 364.125,279.491 363.300 C 279.405 362.475,279.334 363.150,279.334 364.800 M348.406 363.100 C 348.411 363.957,348.498 364.068,348.800 363.600 C 349.306 362.817,349.306 362.000,348.800 362.000 C 348.580 362.000,348.403 362.495,348.406 363.100 M98.283 365.181 C 97.166 366.364,96.962 366.800,97.525 366.800 C 97.912 366.800,99.738 364.404,99.518 364.185 C 99.435 364.101,98.879 364.549,98.283 365.181 M340.302 364.249 C 340.188 364.442,340.280 365.050,340.508 365.600 C 340.841 366.405,340.954 366.466,341.088 365.913 C 341.278 365.123,340.616 363.720,340.302 364.249 M63.833 365.457 C 63.695 365.819,63.663 366.197,63.764 366.297 C 64.082 366.615,64.800 365.977,64.800 365.376 C 64.800 364.592,64.144 364.647,63.833 365.457 M200.302 366.600 C 200.197 367.150,200.266 367.600,200.455 367.600 C 200.645 367.600,200.800 367.150,200.800 366.600 C 200.800 366.050,200.731 365.600,200.647 365.600 C 200.562 365.600,200.407 366.050,200.302 366.600 M310.302 366.600 C 310.197 367.150,310.266 367.600,310.455 367.600 C 310.645 367.600,310.800 367.150,310.800 366.600 C 310.800 366.050,310.731 365.600,310.647 365.600 C 310.562 365.600,310.407 366.050,310.302 366.600 M62.905 368.500 C 63.246 369.454,63.409 369.608,63.518 369.077 C 63.705 368.172,63.350 367.200,62.833 367.200 C 62.592 367.200,62.620 367.701,62.905 368.500 M274.000 370.491 C 274.000 371.220,274.709 371.824,275.103 371.431 C 275.240 371.293,275.048 370.877,274.676 370.505 C 274.053 369.881,274.000 369.880,274.000 370.491 M188.428 377.700 C 188.413 378.305,188.580 378.800,188.800 378.800 C 189.269 378.800,189.269 378.493,188.800 377.400 C 188.495 376.691,188.453 376.725,188.428 377.700 M124.800 384.400 C 124.800 385.147,124.907 385.253,125.280 384.880 C 125.653 384.507,125.653 384.293,125.280 383.920 C 124.907 383.547,124.800 383.653,124.800 384.400 M178.486 388.500 C 178.408 393.125,178.465 393.599,179.100 393.594 C 179.584 393.590,179.650 393.492,179.313 393.279 C 178.988 393.072,178.785 391.382,178.699 388.185 L 178.572 383.400 178.486 388.500 M233.200 385.564 C 233.200 385.750,233.470 386.126,233.800 386.400 C 234.288 386.805,234.400 386.785,234.400 386.292 C 234.400 385.958,234.130 385.582,233.800 385.455 C 233.470 385.329,233.200 385.377,233.200 385.564 M101.600 390.000 C 101.600 390.220,101.870 390.400,102.200 390.400 C 102.530 390.400,102.800 390.220,102.800 390.000 C 102.800 389.780,102.530 389.600,102.200 389.600 C 101.870 389.600,101.600 389.780,101.600 390.000 M147.541 392.200 C 147.091 392.947,147.745 394.006,148.400 393.591 C 148.748 393.372,148.802 393.210,148.529 393.206 C 148.270 393.203,147.996 392.885,147.920 392.500 C 147.844 392.115,147.673 391.980,147.541 392.200 M160.806 392.700 C 160.803 393.195,160.980 393.600,161.200 393.600 C 161.701 393.600,161.701 393.176,161.200 392.400 C 160.886 391.915,160.811 391.972,160.806 392.700 M198.217 393.172 C 197.944 393.614,198.575 394.092,198.944 393.722 C 199.325 393.342,199.254 392.800,198.824 392.800 C 198.617 392.800,198.344 392.968,198.217 393.172 M229.800 393.200 C 229.936 393.420,230.397 393.600,230.824 393.600 C 231.251 393.600,231.600 393.420,231.600 393.200 C 231.600 392.980,231.139 392.800,230.576 392.800 C 229.996 392.800,229.660 392.973,229.800 393.200 M73.600 394.000 C 74.930 394.426,77.208 394.426,78.200 394.000 C 78.732 393.771,77.929 393.660,75.800 393.668 C 73.618 393.676,72.918 393.782,73.600 394.000 M109.474 394.061 C 110.525 394.297,111.640 394.295,112.474 394.054 C 113.605 393.728,113.359 393.673,110.800 393.679 C 108.002 393.685,107.912 393.711,109.474 394.061 M234.877 394.076 C 235.835 394.331,237.099 394.333,238.477 394.082 C 240.554 393.703,240.523 393.695,237.000 393.689 C 233.915 393.684,233.611 393.739,234.877 394.076 " stroke="none" fill="#273c95" fill-rule="evenodd"/><path id="path3" d="M196.400 8.798 C 193.650 10.548,191.001 12.210,190.513 12.490 C 187.875 14.005,178.901 19.547,174.905 22.129 C 173.312 23.158,171.842 24.000,171.638 24.000 C 171.434 24.000,171.207 24.151,171.133 24.337 C 171.060 24.522,169.290 25.696,167.200 26.946 C 165.110 28.196,161.420 30.465,159.000 31.988 C 156.580 33.511,153.610 35.333,152.400 36.037 C 151.190 36.741,149.210 37.964,148.000 38.755 C 146.790 39.545,145.325 40.464,144.745 40.796 C 137.325 45.043,125.251 52.959,125.054 53.708 C 124.366 56.314,124.791 139.501,125.497 140.320 C 126.110 141.033,136.487 147.600,137.000 147.600 C 137.105 147.600,138.409 148.376,139.896 149.325 C 141.383 150.274,142.870 151.173,143.200 151.323 C 143.530 151.473,144.970 152.339,146.400 153.248 C 147.830 154.156,149.573 155.228,150.274 155.628 C 150.975 156.029,152.325 156.857,153.274 157.468 C 154.223 158.079,155.360 158.779,155.800 159.022 C 156.513 159.416,166.798 165.570,168.456 166.594 C 168.817 166.817,170.320 167.720,171.796 168.600 C 175.254 170.662,175.718 170.944,181.200 174.310 C 195.758 183.251,202.519 187.200,203.266 187.200 C 203.523 187.200,205.459 186.108,207.567 184.772 C 209.675 183.437,211.670 182.185,212.000 181.990 C 213.558 181.070,233.638 168.554,235.400 167.404 C 236.500 166.686,238.930 165.163,240.800 164.020 C 242.670 162.876,246.000 160.785,248.200 159.374 C 250.400 157.962,252.470 156.681,252.800 156.528 C 253.367 156.264,254.885 155.327,260.000 152.083 C 266.706 147.830,268.838 146.311,268.701 145.880 C 268.533 145.347,244.904 131.666,244.081 131.626 C 243.661 131.605,239.747 133.747,236.800 135.611 C 235.346 136.531,229.125 140.273,226.200 141.987 C 224.440 143.019,220.480 145.426,217.400 147.338 C 214.320 149.249,211.537 150.934,211.217 151.081 C 210.896 151.229,209.374 152.126,207.835 153.075 C 204.007 155.435,204.341 155.482,197.400 151.598 C 196.740 151.228,194.970 150.262,193.467 149.451 C 191.964 148.639,190.344 147.730,189.867 147.429 C 189.390 147.129,185.670 145.084,181.600 142.886 C 177.530 140.687,171.680 137.495,168.600 135.793 C 165.520 134.092,161.740 132.027,160.200 131.205 C 158.660 130.383,156.500 129.201,155.400 128.578 C 154.300 127.955,152.685 127.063,151.812 126.597 C 149.593 125.411,149.683 126.619,149.645 97.600 C 149.607 68.232,149.476 70.032,151.732 68.811 C 153.721 67.735,156.183 66.357,157.122 65.795 C 157.495 65.572,159.060 64.691,160.600 63.837 C 167.580 59.967,173.523 56.599,174.891 55.738 C 175.712 55.222,176.472 54.800,176.581 54.800 C 176.690 54.800,179.128 53.450,182.000 51.800 C 184.872 50.150,187.303 48.800,187.403 48.800 C 187.504 48.800,188.762 48.080,190.200 47.200 C 191.638 46.320,192.869 45.600,192.937 45.600 C 193.005 45.600,194.998 44.520,197.367 43.200 C 202.595 40.287,201.623 40.263,207.400 43.443 C 210.040 44.896,213.280 46.676,214.600 47.399 C 215.920 48.121,218.957 49.812,221.349 51.156 C 223.741 52.500,225.753 53.600,225.819 53.600 C 225.886 53.600,227.799 54.648,230.070 55.929 C 240.784 61.970,242.640 62.742,243.820 61.648 C 244.029 61.454,247.620 59.540,251.800 57.394 C 274.332 45.829,272.768 46.987,268.717 44.855 C 267.773 44.358,266.190 43.426,265.200 42.784 C 264.210 42.142,263.040 41.439,262.600 41.223 C 262.160 41.006,259.370 39.391,256.400 37.633 C 253.430 35.875,249.380 33.508,247.400 32.374 C 245.420 31.239,242.900 29.726,241.800 29.012 C 240.700 28.298,238.720 27.121,237.400 26.397 C 236.080 25.673,234.571 24.748,234.046 24.340 C 233.521 23.933,232.933 23.600,232.738 23.600 C 232.543 23.600,231.623 23.119,230.692 22.531 C 227.953 20.800,207.555 8.800,207.353 8.800 C 207.251 8.800,206.635 8.440,205.984 8.000 C 205.333 7.560,204.267 6.840,203.616 6.400 C 201.944 5.270,201.940 5.272,196.400 8.798 M208.272 9.934 C 216.631 14.917,230.896 23.351,236.800 26.801 C 239.550 28.409,243.600 30.802,245.800 32.119 C 248.000 33.437,250.340 34.824,251.000 35.202 C 251.660 35.579,253.190 36.479,254.400 37.200 C 255.610 37.921,257.230 38.867,258.000 39.301 C 264.052 42.715,270.400 46.574,270.400 46.839 C 270.400 47.015,268.555 48.091,266.300 49.231 C 264.045 50.370,260.220 52.336,257.800 53.600 C 255.380 54.863,250.831 57.195,247.692 58.782 L 241.983 61.668 239.187 60.221 C 237.649 59.425,235.485 58.240,234.378 57.587 C 233.271 56.934,232.306 56.400,232.234 56.400 C 232.162 56.400,230.357 55.411,228.224 54.203 C 226.090 52.995,222.962 51.253,221.272 50.332 C 219.583 49.412,214.850 46.820,210.756 44.574 C 201.090 39.271,202.461 39.538,198.000 42.082 C 193.360 44.727,187.192 48.201,185.200 49.292 C 183.990 49.955,179.760 52.336,175.800 54.584 C 171.840 56.831,167.340 59.352,165.800 60.185 C 164.260 61.018,162.820 61.838,162.600 62.008 C 162.380 62.177,161.030 62.946,159.600 63.718 C 158.170 64.489,155.290 66.087,153.200 67.270 L 149.400 69.421 149.297 97.613 C 149.201 124.134,149.236 125.830,149.897 126.241 C 150.284 126.481,154.650 128.897,159.600 131.609 C 164.550 134.322,170.220 137.432,172.200 138.522 C 174.180 139.611,176.790 141.040,178.000 141.697 C 180.048 142.810,182.952 144.412,185.800 146.000 C 194.181 150.672,203.628 155.600,204.203 155.600 C 204.603 155.600,206.523 154.610,208.470 153.400 C 210.416 152.190,212.116 151.200,212.247 151.200 C 212.377 151.200,213.284 150.660,214.262 150.000 C 215.240 149.340,216.211 148.800,216.420 148.800 C 216.629 148.800,216.800 148.620,216.800 148.400 C 216.800 148.180,216.978 148.000,217.196 148.000 C 217.414 148.000,219.767 146.650,222.426 145.000 C 225.085 143.350,227.320 142.000,227.393 142.000 C 227.466 142.000,229.719 140.650,232.400 139.000 C 235.081 137.350,237.379 136.000,237.506 136.000 C 237.633 136.000,238.021 135.753,238.369 135.451 C 239.393 134.561,243.504 132.400,244.173 132.400 C 244.513 132.400,246.727 133.543,249.095 134.940 C 251.463 136.337,256.685 139.325,260.700 141.581 C 264.715 143.836,268.000 145.811,268.000 145.969 C 268.000 146.126,265.705 147.708,262.900 149.482 C 255.517 154.154,244.970 160.740,241.200 163.033 C 240.210 163.635,237.917 165.089,236.104 166.264 C 234.291 167.439,232.699 168.400,232.567 168.400 C 232.435 168.400,231.309 169.101,230.064 169.959 C 228.819 170.816,225.100 173.171,221.800 175.191 C 218.500 177.211,215.030 179.390,214.088 180.032 C 213.147 180.675,212.282 181.200,212.166 181.200 C 212.051 181.200,210.591 182.100,208.923 183.200 C 207.254 184.300,205.756 185.200,205.594 185.200 C 205.431 185.200,205.074 185.470,204.800 185.800 C 203.763 187.049,198.807 184.576,185.200 176.018 C 183.523 174.963,167.477 165.250,161.051 161.400 C 157.012 158.980,151.388 155.594,148.554 153.876 C 145.719 152.158,139.530 148.408,134.800 145.544 C 130.070 142.679,126.060 140.201,125.890 140.037 C 125.319 139.489,125.524 53.445,126.097 53.076 C 126.486 52.825,144.280 41.823,147.200 40.028 C 152.372 36.849,173.760 23.590,174.797 22.920 C 181.037 18.890,201.498 6.410,201.872 6.405 C 202.131 6.402,205.011 7.990,208.272 9.934 M260.934 25.027 C 260.802 25.372,260.875 25.835,261.097 26.057 C 261.368 26.328,261.500 26.122,261.500 25.430 C 261.500 24.260,261.287 24.108,260.934 25.027 M196.987 52.265 C 195.234 53.291,191.942 55.271,189.672 56.665 C 187.402 58.059,185.436 59.200,185.304 59.200 C 185.171 59.200,184.779 59.445,184.431 59.744 C 184.084 60.043,182.810 60.823,181.600 61.477 C 180.390 62.131,178.050 63.473,176.400 64.458 C 174.750 65.444,172.050 67.038,170.400 68.002 C 166.832 70.085,167.021 69.954,167.252 70.185 C 167.354 70.287,169.139 69.361,171.219 68.127 C 173.298 66.893,178.690 63.692,183.200 61.013 C 196.226 53.276,198.931 51.700,200.056 51.190 C 201.162 50.689,202.650 51.445,217.000 59.792 C 218.980 60.944,224.344 64.000,228.920 66.584 C 238.243 71.850,238.022 71.529,233.972 73.928 C 226.793 78.182,220.744 81.600,220.393 81.600 C 220.037 81.600,212.775 76.926,211.717 76.016 C 211.451 75.787,211.150 75.600,211.048 75.600 C 210.946 75.600,208.823 74.251,206.331 72.603 C 201.045 69.106,201.299 69.151,197.975 71.145 C 196.559 71.994,194.590 73.119,193.600 73.645 C 190.018 75.547,181.625 80.558,181.773 80.707 C 181.979 80.913,183.808 79.949,188.800 77.002 C 196.016 72.742,200.887 70.000,201.238 70.000 C 201.520 70.000,204.123 71.646,207.800 74.150 C 211.980 76.996,219.495 81.752,220.036 81.894 C 220.732 82.076,221.422 81.732,227.930 77.961 C 229.981 76.773,232.411 75.367,233.330 74.837 C 236.559 72.975,238.000 71.986,238.000 71.632 C 238.000 71.320,233.909 68.812,228.000 65.501 C 222.717 62.540,217.360 59.486,213.800 57.404 C 204.175 51.775,201.624 50.400,200.803 50.400 C 200.457 50.400,198.740 51.239,196.987 52.265 M163.715 71.941 C 160.518 73.819,160.826 71.193,160.788 96.913 C 160.750 122.313,160.537 120.368,163.539 122.045 C 164.783 122.739,167.150 124.066,168.800 124.994 C 170.450 125.922,173.510 127.632,175.600 128.793 C 177.690 129.954,180.840 131.749,182.600 132.781 C 184.360 133.813,187.420 135.567,189.400 136.677 C 191.380 137.788,195.096 139.890,197.657 141.348 C 203.158 144.481,203.677 144.533,207.168 142.300 C 210.354 140.263,210.686 140.058,213.944 138.116 C 215.343 137.282,216.786 136.420,217.152 136.200 C 217.517 135.980,219.253 134.945,221.008 133.901 C 224.701 131.703,227.395 129.643,224.198 131.461 C 222.530 132.410,216.534 135.995,212.591 138.400 C 202.839 144.349,203.367 144.172,200.506 142.458 C 199.458 141.830,195.630 139.646,192.000 137.604 C 188.370 135.563,183.510 132.811,181.200 131.489 C 178.890 130.167,176.010 128.537,174.800 127.867 C 173.590 127.197,170.080 125.197,167.000 123.422 L 161.400 120.194 161.297 97.145 L 161.194 74.096 163.997 72.402 C 165.539 71.470,166.800 70.639,166.800 70.554 C 166.800 70.225,166.108 70.536,163.715 71.941 M178.971 82.055 C 176.252 83.773,176.413 82.856,176.406 96.664 L 176.400 109.129 177.681 110.207 C 178.385 110.799,179.870 111.813,180.981 112.458 C 182.091 113.104,184.620 114.695,186.600 115.995 C 191.531 119.231,200.012 124.593,201.063 125.140 C 201.838 125.543,202.871 124.881,211.063 118.733 C 216.089 114.962,220.517 111.792,220.905 111.690 C 221.971 111.409,237.400 121.918,237.400 122.926 C 237.400 123.179,234.921 124.901,231.892 126.752 C 228.862 128.602,226.472 130.205,226.580 130.313 C 226.995 130.728,237.800 123.688,237.888 122.945 C 237.963 122.305,234.200 119.056,232.684 118.452 C 232.480 118.371,230.488 117.036,228.256 115.486 C 226.025 113.937,223.597 112.253,222.860 111.745 C 221.338 110.696,220.817 110.840,217.800 113.144 C 215.991 114.525,215.533 114.870,207.847 120.635 C 201.156 125.653,202.249 125.618,195.194 121.041 C 192.007 118.974,187.870 116.298,186.000 115.094 C 184.130 113.891,181.410 112.141,179.955 111.204 L 177.309 109.502 177.055 106.491 C 176.725 102.595,176.724 86.480,177.053 84.836 C 177.246 83.871,177.743 83.321,179.153 82.515 C 181.405 81.226,181.379 81.246,181.138 81.005 C 181.030 80.897,180.055 81.370,178.971 82.055 M218.000 300.776 C 214.214 301.543,210.702 304.406,208.774 308.294 C 207.224 311.421,206.532 320.150,207.617 322.905 C 210.625 330.549,214.020 333.000,221.600 333.000 C 228.649 333.000,232.634 330.303,234.458 324.298 C 235.570 320.637,235.405 320.481,229.977 320.055 C 225.459 319.701,224.800 319.882,224.800 321.480 C 224.800 323.487,222.092 325.306,220.429 324.415 C 218.530 323.399,217.738 313.810,219.313 310.906 C 220.703 308.342,223.685 308.847,224.412 311.769 C 225.134 314.672,225.007 314.609,229.842 314.465 C 235.197 314.305,235.455 314.134,234.820 311.147 C 233.140 303.239,226.388 299.075,218.000 300.776 M238.895 301.204 L 237.991 301.578 238.095 317.089 L 238.200 332.600 249.774 332.706 C 256.771 332.770,261.499 332.661,261.731 332.429 C 262.268 331.892,262.479 326.261,262.009 325.023 L 261.620 324.000 255.843 324.000 C 249.001 324.000,248.800 323.947,248.800 322.157 L 248.800 320.800 253.751 320.800 C 259.792 320.800,259.672 320.897,259.516 316.140 L 259.400 312.600 254.200 312.400 C 249.089 312.203,248.998 312.184,248.865 311.245 C 248.658 309.778,249.350 309.613,255.713 309.606 C 262.472 309.599,261.956 309.935,262.130 305.426 C 262.315 300.643,262.977 300.900,250.347 300.862 C 244.546 300.844,239.393 300.998,238.895 301.204 M265.861 301.270 C 265.264 301.604,265.200 303.134,265.200 317.012 L 265.200 332.385 266.100 332.610 C 266.595 332.734,268.620 332.782,270.600 332.718 L 274.200 332.600 274.400 326.098 C 274.518 322.279,274.765 319.556,274.999 319.498 C 275.218 319.444,276.795 321.650,278.502 324.400 C 280.209 327.150,282.145 330.171,282.805 331.114 L 284.003 332.828 288.102 332.714 L 292.200 332.600 292.305 316.900 L 292.409 301.200 291.305 301.145 C 282.940 300.726,283.200 300.529,283.200 307.262 C 283.200 312.566,282.920 313.365,281.811 311.221 C 281.475 310.572,280.690 309.267,280.066 308.321 C 279.441 307.374,278.159 305.390,277.217 303.912 C 276.275 302.433,275.210 301.141,274.852 301.040 C 273.674 300.709,266.537 300.892,265.861 301.270 M295.043 301.552 C 294.569 302.076,294.400 303.076,294.400 305.358 C 294.400 309.603,294.668 310.000,297.534 310.000 C 300.930 310.000,300.800 309.553,300.800 321.247 C 300.800 326.905,300.909 331.819,301.043 332.167 C 301.361 332.996,310.548 333.117,311.076 332.300 C 311.254 332.025,311.490 326.940,311.600 321.000 L 311.800 310.200 314.600 310.000 L 317.400 309.800 317.514 305.721 C 317.615 302.102,317.545 301.599,316.891 301.249 C 315.422 300.463,295.783 300.735,295.043 301.552 M320.245 301.318 C 319.519 301.849,319.457 331.199,320.180 332.367 C 320.565 332.990,329.693 332.947,330.320 332.320 C 330.643 331.997,330.800 330.169,330.800 326.720 C 330.800 320.569,331.615 319.587,333.140 323.900 C 334.854 328.748,336.069 331.801,336.484 332.302 C 337.206 333.171,347.748 332.821,347.920 331.922 C 348.034 331.328,345.826 325.316,344.180 321.740 C 343.322 319.874,343.450 319.307,345.051 317.901 C 349.942 313.607,348.839 305.461,342.954 302.425 C 339.830 300.813,322.116 299.950,320.245 301.318 M353.800 301.152 L 352.200 301.400 352.200 317.000 L 352.200 332.600 363.752 332.706 C 377.485 332.832,376.467 333.211,376.314 328.040 L 376.200 324.200 369.600 324.000 L 363.000 323.800 362.877 322.312 L 362.753 320.824 368.077 320.712 L 373.400 320.600 373.514 316.512 L 373.628 312.423 368.314 312.312 L 363.000 312.200 363.000 311.000 L 363.000 309.800 369.172 309.689 C 376.647 309.555,376.400 309.708,376.400 305.215 C 376.400 301.919,376.347 301.704,375.437 301.289 C 374.401 300.818,356.678 300.705,353.800 301.152 M227.012 302.046 C 230.551 303.564,233.795 308.040,234.079 311.800 L 234.200 313.400 230.227 313.600 C 225.998 313.813,225.200 313.550,225.200 311.945 C 225.200 309.138,221.977 307.420,219.700 309.015 C 217.109 310.829,216.818 322.847,219.322 324.601 C 221.619 326.209,224.887 324.864,225.444 322.081 L 225.700 320.800 229.601 320.800 C 234.178 320.800,234.597 321.051,233.948 323.404 C 231.983 330.521,224.677 334.220,217.160 331.903 C 204.206 327.910,204.684 305.228,217.800 301.564 C 219.448 301.103,225.559 301.423,227.012 302.046 M261.120 302.080 C 261.618 302.578,261.767 306.335,261.350 307.890 C 261.118 308.758,260.948 308.783,254.656 308.890 L 248.200 309.000 248.078 310.687 C 247.929 312.742,247.985 312.762,254.200 312.901 L 258.600 313.000 258.715 316.488 L 258.831 319.977 253.515 320.088 L 248.200 320.200 248.200 322.200 L 248.200 324.200 254.594 324.400 L 260.988 324.600 261.234 326.120 C 261.370 326.957,261.463 328.577,261.440 329.720 L 261.400 331.800 250.000 331.800 L 238.600 331.800 238.495 317.202 C 238.437 309.173,238.476 302.378,238.582 302.102 C 238.854 301.395,260.414 301.374,261.120 302.080 M276.128 303.700 C 276.883 304.855,278.714 307.690,280.199 310.000 C 284.212 316.246,284.133 316.272,284.035 308.696 C 283.939 301.315,283.807 301.599,287.343 301.605 C 288.914 301.608,290.607 301.720,291.105 301.853 L 292.010 302.096 291.905 316.948 L 291.800 331.800 287.937 331.914 L 284.075 332.028 282.540 329.514 C 281.696 328.131,280.735 326.530,280.403 325.955 C 274.223 315.244,273.830 315.141,273.709 324.193 C 273.594 332.744,273.951 332.056,269.707 331.916 L 266.200 331.800 266.095 317.202 C 266.037 309.173,266.076 302.378,266.182 302.102 C 266.320 301.744,267.574 301.600,270.566 301.600 L 274.757 301.600 276.128 303.700 M316.715 305.500 L 316.830 309.200 314.315 309.206 C 310.464 309.216,310.709 308.440,310.762 320.450 C 310.817 333.038,311.226 332.060,305.967 331.915 L 301.800 331.800 301.697 321.000 C 301.579 308.619,301.764 309.200,297.924 309.200 L 295.600 309.200 295.600 305.393 L 295.600 301.587 306.100 301.693 L 316.600 301.800 316.715 305.500 M339.923 302.066 C 347.904 304.046,350.285 313.588,343.850 317.804 C 342.309 318.814,342.517 320.046,345.314 326.500 C 347.882 332.425,348.096 332.049,342.176 332.030 C 336.517 332.012,337.325 332.651,334.827 326.231 C 331.610 317.967,330.091 318.062,329.911 326.540 L 329.800 331.800 325.200 331.800 L 320.600 331.800 320.495 317.202 C 320.437 309.173,320.476 302.378,320.582 302.102 C 320.841 301.426,337.223 301.396,339.923 302.066 M375.357 302.233 C 375.668 303.043,375.662 306.727,375.348 307.900 C 375.111 308.783,374.994 308.800,369.033 308.800 C 362.501 308.800,362.000 308.945,362.000 310.831 C 362.000 312.528,362.699 312.766,368.025 312.887 L 373.000 313.000 373.000 316.400 L 373.000 319.800 367.816 319.913 C 362.241 320.034,362.012 320.124,362.012 322.200 C 362.012 324.325,362.152 324.370,369.017 324.489 L 375.400 324.600 375.400 328.200 L 375.400 331.800 364.228 331.906 C 355.556 331.989,352.983 331.900,352.734 331.506 C 352.184 330.640,352.323 302.637,352.880 302.080 C 353.697 301.263,375.041 301.408,375.357 302.233 M330.500 308.641 C 329.858 308.931,329.831 312.871,330.467 313.507 C 331.102 314.142,335.585 313.680,336.500 312.884 C 337.238 312.243,337.431 310.183,336.839 309.250 C 336.479 308.682,331.473 308.200,330.500 308.641 M335.626 309.614 C 338.369 311.082,334.527 314.145,331.433 312.957 C 330.792 312.711,330.510 310.023,331.067 309.467 C 331.485 309.049,334.768 309.155,335.626 309.614 M74.300 358.293 C 75.235 358.377,76.765 358.377,77.700 358.293 C 78.635 358.209,77.870 358.140,76.000 358.140 C 74.130 358.140,73.365 358.209,74.300 358.293 M105.800 358.560 C 95.052 361.207,89.869 375.399,95.535 386.669 C 96.532 388.653,99.571 392.400,100.183 392.400 C 100.344 392.400,100.965 392.748,101.561 393.172 C 106.184 396.464,115.294 396.455,120.115 393.153 C 122.893 391.251,126.463 387.130,125.858 386.525 C 125.749 386.415,125.384 386.857,125.048 387.507 C 120.392 396.511,105.108 397.843,98.102 389.857 C 93.279 384.358,92.347 374.707,95.920 367.239 C 101.187 356.229,117.774 355.188,124.817 365.424 C 128.047 370.120,128.690 379.459,126.188 385.366 C 125.971 385.879,126.006 386.043,126.295 385.865 C 127.634 385.037,128.524 378.480,127.994 373.343 C 126.853 362.280,117.094 355.780,105.800 358.560 M68.072 359.627 C 64.616 361.354,60.307 366.977,60.429 369.600 C 60.444 369.930,60.698 369.542,60.994 368.738 C 62.706 364.082,66.487 360.364,70.914 358.980 C 72.247 358.564,72.383 358.448,71.564 358.427 C 70.994 358.412,69.423 358.952,68.072 359.627 M81.400 359.108 C 86.528 360.883,89.628 364.478,90.802 370.012 C 91.514 373.364,91.363 373.468,85.320 373.818 L 80.440 374.100 80.184 372.950 C 79.083 368.007,76.331 365.990,74.042 368.447 C 71.093 371.612,71.335 383.960,74.378 385.588 C 76.259 386.595,79.218 385.506,79.709 383.625 C 79.859 383.054,79.538 383.233,78.563 384.266 C 74.447 388.631,70.452 379.816,72.906 371.783 C 74.420 366.827,78.684 366.883,79.431 371.870 C 79.814 374.424,80.133 374.548,85.641 374.295 C 91.234 374.037,91.759 373.734,91.427 370.956 C 90.721 365.041,85.887 359.341,80.981 358.641 C 79.453 358.423,79.467 358.438,81.400 359.108 M132.480 358.880 C 131.790 359.570,131.790 394.030,132.480 394.720 C 132.790 395.030,134.391 395.200,137.000 395.200 C 142.306 395.200,142.000 395.707,142.000 386.920 C 142.000 382.307,142.148 379.600,142.400 379.600 C 142.620 379.600,142.802 380.005,142.805 380.500 C 142.808 380.995,143.183 382.570,143.639 384.000 C 144.095 385.430,144.918 388.310,145.468 390.400 C 146.775 395.361,146.589 395.200,151.000 395.200 C 153.491 395.200,154.827 395.036,155.084 394.700 C 155.572 394.061,156.596 389.663,156.321 389.388 C 156.207 389.274,155.882 390.272,155.598 391.607 C 154.975 394.546,154.583 394.802,150.726 394.794 C 147.022 394.786,147.094 394.848,146.057 390.800 C 145.578 388.930,144.742 385.870,144.199 384.000 C 143.655 382.130,143.021 379.835,142.790 378.900 C 141.925 375.405,141.600 377.213,141.600 385.520 C 141.600 395.372,141.884 394.800,137.000 394.800 C 134.702 394.800,133.183 394.623,132.880 394.320 C 132.126 393.566,132.196 359.867,132.953 359.239 C 133.333 358.924,135.660 358.815,140.420 358.890 L 147.334 359.000 147.835 360.600 C 148.111 361.480,148.819 364.000,149.407 366.200 C 149.996 368.400,150.567 370.529,150.675 370.930 C 150.784 371.332,150.957 371.576,151.061 371.473 C 151.267 371.267,149.616 364.849,148.342 360.900 L 147.535 358.400 140.247 358.400 C 135.113 358.400,132.818 358.542,132.480 358.880 M155.683 359.300 C 155.435 359.795,154.664 362.360,153.970 365.000 C 153.276 367.640,152.528 370.472,152.307 371.294 C 152.083 372.128,151.727 372.678,151.501 372.539 C 151.278 372.401,151.176 372.527,151.273 372.819 C 151.773 374.319,152.393 373.155,153.565 368.512 C 154.274 365.701,155.173 362.410,155.561 361.200 L 156.266 359.000 163.180 358.890 C 167.940 358.815,170.267 358.924,170.647 359.239 C 171.404 359.867,171.474 393.566,170.720 394.320 C 169.823 395.217,160.916 394.963,160.414 394.026 C 160.170 393.571,160.000 390.118,160.000 385.626 C 160.000 378.813,159.708 376.608,159.085 378.700 C 158.040 382.204,156.459 388.592,156.602 388.735 C 156.802 388.936,156.756 389.077,158.007 384.400 C 159.380 379.265,159.600 379.616,159.600 386.946 C 159.600 395.740,159.212 395.200,165.534 395.200 C 168.972 395.200,170.797 395.043,171.120 394.720 C 171.810 394.030,171.810 359.570,171.120 358.880 C 170.102 357.862,156.216 358.240,155.683 359.300 M177.423 359.289 C 176.478 360.638,176.483 393.626,177.429 394.571 C 178.149 395.291,185.334 395.482,186.400 394.809 C 186.887 394.502,187.038 392.984,187.200 386.715 L 187.400 379.000 188.120 381.800 C 190.615 391.510,191.531 394.508,192.113 394.878 C 192.945 395.407,199.454 395.258,199.913 394.700 C 200.485 394.005,201.699 389.692,201.491 389.092 C 201.398 388.821,201.106 389.588,200.844 390.795 C 200.029 394.552,199.719 394.800,195.840 394.800 C 191.736 394.800,192.124 395.309,190.042 387.200 C 189.111 383.570,188.180 380.187,187.974 379.681 C 187.768 379.176,187.600 378.375,187.600 377.901 C 187.600 377.250,187.487 377.153,187.138 377.502 C 186.824 377.816,186.652 380.544,186.601 385.985 C 186.561 390.397,186.394 394.140,186.231 394.303 C 185.768 394.767,178.671 394.876,178.000 394.429 C 177.141 393.857,177.093 360.493,177.949 359.461 C 178.662 358.602,191.636 358.456,192.290 359.300 C 192.503 359.575,193.449 362.680,194.393 366.200 C 196.013 372.246,196.688 374.246,197.001 373.932 C 197.132 373.801,197.666 371.865,199.842 363.616 C 200.392 361.535,201.034 359.600,201.269 359.316 C 201.756 358.730,214.609 358.564,215.504 359.132 C 215.900 359.384,215.986 363.233,215.904 377.026 L 215.800 394.600 211.000 394.701 C 208.360 394.756,205.998 394.666,205.750 394.501 C 205.352 394.234,204.837 386.256,204.809 379.900 C 204.804 378.855,204.664 378.000,204.498 378.000 C 204.253 378.000,202.106 385.337,201.690 387.600 C 201.395 389.202,202.757 385.915,203.182 384.000 C 204.092 379.898,204.200 380.192,204.400 387.315 C 204.640 395.839,204.126 395.233,211.000 395.100 L 216.200 395.000 216.400 377.800 C 216.510 368.340,216.447 360.105,216.261 359.500 L 215.922 358.400 208.610 358.400 C 203.236 358.400,201.194 358.533,200.907 358.900 C 200.453 359.480,200.432 359.550,198.414 367.200 C 196.985 372.620,196.000 373.928,196.000 370.406 C 196.000 369.886,193.252 360.326,192.807 359.300 C 192.201 357.901,178.402 357.891,177.423 359.289 M222.090 358.870 C 221.396 359.564,221.411 384.618,222.108 387.284 C 223.564 392.855,229.171 395.809,237.725 395.511 C 242.265 395.353,247.092 394.159,246.318 393.385 C 246.211 393.278,245.241 393.597,244.162 394.095 C 238.749 396.592,228.869 395.002,224.945 391.004 C 222.115 388.120,222.000 387.388,222.000 372.194 C 222.000 357.383,221.334 358.800,228.294 358.800 C 234.537 358.800,234.000 357.654,234.002 370.980 C 234.005 385.708,234.421 386.887,239.159 385.611 C 242.009 384.843,242.000 384.890,242.000 371.525 C 242.000 357.670,241.565 358.800,246.897 358.800 C 252.082 358.800,251.680 357.530,251.529 373.416 C 251.384 388.690,251.439 388.392,248.139 391.781 C 247.073 392.876,246.907 393.171,247.600 392.740 C 251.491 390.319,252.000 387.929,252.000 372.060 C 252.000 357.131,252.483 358.400,246.800 358.400 C 241.128 358.400,241.600 357.220,241.600 371.410 L 241.600 383.461 240.674 384.330 C 239.533 385.402,236.403 385.546,235.429 384.571 C 235.083 384.226,234.764 383.911,234.720 383.871 C 234.676 383.832,234.541 378.130,234.420 371.200 L 234.200 358.600 228.390 358.490 C 224.210 358.411,222.443 358.517,222.090 358.870 M257.549 359.061 C 256.692 360.094,256.741 394.265,257.600 394.808 C 257.930 395.017,260.213 395.191,262.673 395.194 C 268.077 395.201,267.600 396.004,267.790 386.577 C 267.868 382.704,268.004 379.463,268.092 379.375 C 268.246 379.221,271.112 383.460,273.383 387.200 C 273.984 388.190,275.353 390.395,276.424 392.100 L 278.373 395.200 282.958 395.200 C 289.427 395.200,288.800 397.160,288.800 376.945 C 288.800 356.557,289.336 358.400,283.410 358.400 C 277.833 358.400,278.248 357.821,278.000 365.952 L 277.800 372.505 274.642 367.552 C 272.905 364.829,271.024 361.880,270.463 361.000 C 268.821 358.428,268.744 358.400,263.173 358.400 C 258.940 358.400,258.007 358.510,257.549 359.061 M294.480 358.880 C 293.790 359.570,293.790 394.030,294.480 394.720 C 294.806 395.046,296.702 395.200,300.400 395.200 C 304.098 395.200,305.994 395.046,306.320 394.720 C 306.951 394.089,307.013 360.346,306.386 359.174 C 305.882 358.233,295.386 357.974,294.480 358.880 M309.214 359.174 C 308.986 359.599,308.800 361.731,308.800 363.912 C 308.800 368.912,309.036 369.200,313.131 369.200 L 316.000 369.200 316.000 381.720 C 316.000 396.591,315.367 395.200,322.136 395.200 C 328.983 395.200,328.372 396.539,328.387 381.500 L 328.400 369.200 331.377 369.200 C 335.218 369.200,335.600 368.751,335.600 364.236 L 335.600 361.049 336.500 362.015 C 336.995 362.546,337.774 363.705,338.231 364.590 C 339.422 366.899,342.824 372.400,343.059 372.400 C 343.339 372.400,338.776 364.321,337.138 361.916 C 335.278 359.184,336.000 358.800,343.000 358.800 L 348.335 358.800 349.120 360.100 C 349.553 360.815,350.656 362.870,351.572 364.667 C 354.201 369.824,354.022 369.889,357.787 362.400 C 359.665 358.663,359.395 358.813,364.267 358.806 C 370.778 358.796,370.680 358.521,366.701 365.600 C 366.144 366.590,364.479 369.650,363.000 372.400 C 361.521 375.150,360.062 377.850,359.758 378.400 C 359.346 379.144,359.204 381.208,359.202 386.471 C 359.199 395.441,359.616 394.906,352.778 394.731 C 349.971 394.659,347.759 394.735,347.861 394.900 C 347.963 395.065,350.364 395.200,353.195 395.200 C 360.033 395.200,359.599 395.763,359.602 386.871 C 359.604 381.739,359.752 379.526,360.140 378.800 C 360.434 378.250,361.303 376.630,362.072 375.200 C 362.841 373.770,364.339 370.980,365.402 369.000 C 366.465 367.020,367.659 364.860,368.056 364.200 C 371.270 358.849,370.970 358.400,364.183 358.400 C 358.871 358.400,359.418 358.028,356.640 363.539 C 354.079 368.622,354.308 368.630,351.466 363.352 C 350.177 360.958,348.915 358.868,348.661 358.706 C 347.715 358.103,336.537 358.353,336.009 358.989 C 335.579 359.507,335.450 359.507,334.932 358.989 C 333.897 357.954,309.774 358.128,309.214 359.174 M272.997 365.888 C 275.428 369.677,277.638 372.998,277.908 373.268 C 278.297 373.657,278.400 372.299,278.400 366.760 C 278.400 358.326,278.099 358.800,283.466 358.800 C 288.853 358.800,288.400 357.133,288.400 376.945 C 288.400 396.692,288.966 394.875,282.866 394.713 L 278.616 394.600 275.125 389.000 C 270.564 381.685,269.096 379.344,268.561 378.539 C 267.518 376.969,267.258 378.489,267.255 386.203 C 267.252 390.488,267.139 394.176,267.002 394.397 C 266.735 394.829,259.296 394.965,258.233 394.557 C 257.393 394.235,257.257 360.103,258.091 359.269 C 258.440 358.920,260.033 358.810,263.580 358.889 L 268.578 359.000 272.997 365.888 M305.986 359.574 C 306.613 360.745,306.550 393.690,305.920 394.320 C 305.597 394.643,303.787 394.800,300.400 394.800 C 297.013 394.800,295.203 394.643,294.880 394.320 C 294.250 393.690,294.187 360.745,294.814 359.574 C 295.191 358.870,295.696 358.800,300.400 358.800 C 305.104 358.800,305.609 358.870,305.986 359.574 M334.622 359.479 C 335.364 360.221,335.301 367.259,334.546 368.014 C 334.346 368.214,332.876 368.499,331.279 368.647 C 327.586 368.990,327.889 367.823,327.970 381.432 C 328.056 395.948,328.521 394.800,322.560 394.800 C 315.760 394.800,316.400 396.171,316.400 381.610 C 316.400 374.810,316.265 369.164,316.100 369.063 C 315.935 368.962,314.542 368.758,313.006 368.610 C 311.469 368.462,309.984 368.152,309.706 367.922 C 308.914 367.265,309.016 360.241,309.829 359.429 C 310.816 358.441,333.630 358.487,334.622 359.479 M108.629 368.534 C 106.808 370.356,105.732 377.738,106.783 381.200 C 106.950 381.750,106.998 380.385,106.889 378.167 C 106.390 368.002,112.369 363.674,114.451 372.693 C 116.403 381.151,111.522 389.284,107.980 383.474 C 107.425 382.564,107.203 382.409,107.201 382.931 C 107.194 386.467,112.789 386.839,114.226 383.399 C 117.455 375.672,113.088 364.075,108.629 368.534 M59.585 372.668 C 59.023 375.376,59.262 381.515,59.974 382.640 C 60.409 383.328,60.433 383.305,60.220 382.400 C 59.646 379.951,59.541 376.368,59.965 373.645 C 60.519 370.078,60.262 369.414,59.585 372.668 M343.213 372.966 C 343.206 373.168,344.055 374.698,345.100 376.366 L 347.000 379.400 347.088 386.555 C 347.136 390.490,347.271 393.805,347.388 393.921 C 347.505 394.038,347.600 390.930,347.600 387.016 L 347.600 379.898 346.023 377.049 C 344.308 373.951,343.233 372.390,343.213 372.966 M80.267 380.267 C 79.772 380.761,79.986 381.310,80.505 380.879 C 80.783 380.648,81.728 380.386,82.605 380.297 L 84.200 380.134 82.367 380.067 C 81.358 380.030,80.413 380.120,80.267 380.267 M87.668 380.763 C 90.852 381.046,90.948 381.122,90.871 383.299 C 90.828 384.529,90.919 384.834,91.199 384.400 C 92.726 382.042,91.334 380.388,87.886 380.463 L 85.000 380.526 87.668 380.763 M60.404 384.500 C 60.414 385.843,62.650 389.587,64.455 391.285 C 71.870 398.260,85.581 396.685,89.563 388.400 C 89.958 387.580,89.883 387.616,89.147 388.600 C 81.764 398.474,65.008 396.863,61.377 385.930 C 60.746 384.031,60.396 383.517,60.404 384.500 " stroke="none" fill="#9eacb9" fill-rule="evenodd"/><path id="path4" d="M103.800 4.069 C 102.700 4.762,101.170 5.724,100.400 6.207 C 99.630 6.689,97.889 7.785,96.531 8.642 C 95.173 9.499,93.293 10.650,92.355 11.200 C 91.416 11.750,89.523 12.941,88.149 13.847 C 86.775 14.754,85.400 15.591,85.094 15.709 C 84.788 15.826,83.501 16.615,82.235 17.461 C 80.968 18.308,79.453 19.270,78.866 19.601 C 78.280 19.931,77.232 20.606,76.538 21.101 C 75.844 21.595,75.105 22.000,74.896 22.000 C 74.686 22.000,73.679 22.638,72.658 23.418 L 70.800 24.837 70.800 96.598 L 70.800 168.359 72.179 169.411 C 73.529 170.441,74.160 170.809,79.259 173.549 C 80.640 174.291,82.417 175.306,83.208 175.805 C 83.999 176.305,86.432 177.656,88.615 178.808 C 90.798 179.960,93.670 181.555,94.997 182.351 C 96.324 183.148,97.948 184.065,98.605 184.390 C 99.791 184.975,107.650 189.308,108.800 190.011 C 109.130 190.213,110.030 190.685,110.800 191.060 C 111.570 191.435,112.654 192.053,113.208 192.433 C 113.763 192.813,115.996 194.060,118.170 195.205 C 120.345 196.349,122.618 197.581,123.222 197.943 C 126.751 200.054,129.579 201.600,129.911 201.600 C 130.121 201.600,130.723 201.939,131.250 202.354 C 132.263 203.150,133.669 203.959,141.400 208.190 C 144.040 209.635,147.100 211.321,148.200 211.938 C 149.300 212.554,151.791 213.916,153.736 214.965 C 155.681 216.015,157.911 217.307,158.692 217.837 C 159.473 218.367,160.274 218.800,160.473 218.800 C 162.524 218.800,162.586 219.292,162.800 237.305 L 163.000 254.166 165.390 256.091 C 166.705 257.150,168.502 258.508,169.384 259.108 C 170.267 259.709,173.102 261.775,175.686 263.700 C 178.270 265.625,180.553 267.200,180.759 267.200 C 180.965 267.200,181.193 267.356,181.267 267.546 C 181.396 267.881,188.996 273.792,190.336 274.600 C 191.113 275.068,194.863 277.797,198.000 280.176 C 199.210 281.094,200.874 282.233,201.697 282.707 L 203.194 283.569 205.697 282.380 C 207.074 281.726,209.820 280.233,211.800 279.064 C 213.780 277.894,216.642 276.231,218.160 275.369 C 219.678 274.506,222.108 273.122,223.560 272.294 C 225.012 271.466,227.441 270.116,228.957 269.294 C 230.474 268.472,232.004 267.618,232.357 267.395 C 233.031 266.969,238.845 263.663,241.721 262.070 C 242.644 261.558,243.895 260.669,244.500 260.095 L 245.600 259.050 245.600 237.551 C 245.600 225.022,245.758 215.637,245.978 215.058 C 246.397 213.955,247.516 213.295,258.800 207.499 C 262.870 205.408,267.010 203.227,268.000 202.653 C 268.990 202.079,270.102 201.607,270.471 201.605 C 270.841 201.602,271.389 201.375,271.690 201.100 C 272.372 200.476,272.309 200.509,286.700 193.160 C 293.245 189.818,299.590 186.512,300.800 185.814 C 302.010 185.116,303.593 184.339,304.318 184.087 C 305.042 183.835,306.122 183.295,306.718 182.886 C 307.665 182.235,310.924 180.481,312.771 179.627 C 313.779 179.161,318.264 176.875,322.800 174.514 C 325.110 173.312,328.724 171.456,330.830 170.389 C 332.937 169.322,334.890 168.173,335.171 167.835 C 335.584 167.338,335.598 160.302,335.245 131.110 C 334.457 65.912,333.967 33.040,333.744 30.444 C 333.468 27.236,333.246 26.997,325.993 22.131 C 319.325 17.657,317.869 16.655,316.361 15.500 C 315.571 14.895,314.794 14.400,314.634 14.400 C 314.376 14.400,311.296 12.281,307.810 9.706 C 307.144 9.215,305.610 8.162,304.400 7.366 C 303.190 6.571,301.287 5.308,300.171 4.560 C 297.879 3.024,296.192 2.828,294.754 3.932 C 294.229 4.334,293.530 4.787,293.200 4.937 C 292.870 5.088,291.789 5.703,290.798 6.305 C 289.806 6.907,287.556 8.266,285.798 9.325 C 282.114 11.544,281.777 11.749,278.943 13.500 C 277.785 14.215,276.749 14.800,276.639 14.800 C 276.530 14.800,275.666 15.322,274.720 15.959 C 273.774 16.597,272.190 17.563,271.200 18.105 C 265.991 20.960,261.600 23.857,261.600 24.439 C 261.600 24.934,263.432 24.161,265.344 22.859 C 267.227 21.576,271.171 19.200,271.416 19.200 C 271.505 19.200,273.519 17.998,275.889 16.530 C 278.260 15.061,280.560 13.660,281.000 13.415 C 281.440 13.171,282.826 12.303,284.081 11.485 C 285.335 10.668,286.550 10.000,286.781 10.000 C 287.011 10.000,287.200 9.820,287.200 9.600 C 287.200 9.380,287.443 9.200,287.740 9.200 C 288.037 9.200,289.013 8.669,289.908 8.020 C 290.804 7.372,292.453 6.362,293.572 5.777 C 294.691 5.191,295.706 4.552,295.827 4.356 C 296.344 3.519,297.791 4.256,304.406 8.726 C 327.116 24.070,331.597 27.128,332.434 27.854 C 332.998 28.343,333.099 31.656,333.339 57.503 C 333.488 73.506,333.776 97.940,333.978 111.800 C 334.180 125.660,334.403 143.834,334.473 152.186 L 334.600 167.371 329.000 170.207 C 325.920 171.767,319.800 174.904,315.400 177.177 C 311.000 179.451,304.160 182.973,300.200 185.005 C 296.240 187.037,290.930 189.774,288.400 191.087 C 281.123 194.865,270.470 200.359,261.959 204.723 C 257.647 206.934,252.877 209.413,251.359 210.232 C 249.842 211.051,247.745 212.144,246.700 212.661 L 244.800 213.602 244.787 215.701 C 244.655 236.393,244.477 259.058,244.443 259.258 C 244.419 259.400,243.725 259.865,242.900 260.292 C 239.530 262.033,236.988 263.412,236.800 263.600 C 236.690 263.710,235.970 264.138,235.200 264.551 C 233.250 265.597,231.524 266.584,227.694 268.843 C 225.875 269.916,223.175 271.453,221.694 272.259 C 220.212 273.066,217.541 274.598,215.757 275.663 C 213.974 276.728,212.399 277.600,212.258 277.600 C 212.117 277.600,210.091 278.770,207.755 280.200 C 202.810 283.228,203.430 283.062,201.855 281.773 C 200.526 280.685,189.546 272.618,188.010 271.600 C 187.512 271.270,184.381 268.957,181.052 266.459 C 174.491 261.536,171.972 259.669,166.900 255.967 L 163.600 253.558 163.594 236.679 C 163.587 217.418,163.993 219.410,159.600 217.108 C 157.730 216.129,155.280 214.758,154.156 214.063 C 153.031 213.369,151.948 212.800,151.749 212.800 C 151.549 212.800,150.759 212.381,149.993 211.869 C 149.227 211.357,146.980 210.076,145.000 209.023 C 143.020 207.969,140.950 206.797,140.400 206.418 C 139.850 206.038,138.050 205.002,136.400 204.115 C 134.750 203.228,132.680 202.093,131.800 201.591 C 130.920 201.090,128.850 199.962,127.200 199.085 C 125.550 198.208,122.760 196.674,121.000 195.676 C 119.240 194.678,116.900 193.377,115.800 192.785 C 114.700 192.194,112.630 191.037,111.200 190.215 C 104.271 186.234,95.123 181.200,94.817 181.200 C 94.677 181.200,93.221 180.369,91.582 179.352 C 88.730 177.586,87.291 176.774,81.000 173.382 C 79.460 172.552,77.480 171.444,76.600 170.920 C 75.720 170.396,74.235 169.606,73.300 169.165 L 71.600 168.363 71.540 97.381 C 71.507 58.342,71.462 26.180,71.440 25.912 C 71.404 25.478,75.388 22.476,76.072 22.422 C 76.221 22.410,77.427 21.680,78.752 20.800 C 80.077 19.920,81.247 19.200,81.351 19.200 C 81.456 19.200,82.866 18.345,84.486 17.300 C 86.106 16.255,87.784 15.174,88.216 14.897 C 88.647 14.621,89.270 14.279,89.600 14.138 C 89.930 13.997,90.740 13.493,91.400 13.019 C 92.060 12.544,94.040 11.298,95.800 10.249 C 97.560 9.201,100.677 7.276,102.726 5.971 C 107.058 3.214,106.866 3.248,109.200 4.800 C 110.190 5.458,111.148 5.997,111.328 5.998 C 111.508 5.999,112.441 6.540,113.400 7.200 C 114.359 7.860,115.322 8.400,115.539 8.400 C 115.756 8.400,115.993 8.535,116.067 8.700 C 116.140 8.865,117.370 9.608,118.800 10.352 C 120.230 11.095,121.618 11.876,121.883 12.087 C 122.149 12.298,124.399 13.638,126.883 15.066 C 129.368 16.493,133.620 18.953,136.333 20.531 C 139.047 22.109,142.152 23.836,143.233 24.369 C 145.533 25.502,145.689 26.130,143.900 27.042 C 143.185 27.406,142.330 27.958,142.000 28.269 C 141.670 28.579,140.410 29.554,139.200 30.435 C 137.990 31.317,136.550 32.380,136.000 32.799 C 135.450 33.217,133.110 34.946,130.800 36.640 C 128.490 38.334,124.980 40.924,123.000 42.395 C 121.020 43.866,118.005 46.091,116.300 47.338 L 113.200 49.606 113.200 98.941 C 113.200 151.676,113.130 149.600,114.898 149.600 C 115.027 149.600,116.903 150.610,119.067 151.844 C 121.230 153.077,124.530 154.902,126.400 155.897 C 128.270 156.893,130.626 158.223,131.635 158.854 C 132.644 159.484,133.596 160.000,133.749 160.000 C 133.902 160.000,135.464 160.815,137.219 161.811 C 138.975 162.807,141.264 164.089,142.306 164.659 C 143.348 165.230,145.100 166.196,146.200 166.807 C 147.300 167.417,149.730 168.724,151.600 169.710 C 153.470 170.696,156.170 172.177,157.600 173.001 C 159.030 173.825,161.640 175.266,163.400 176.204 C 165.160 177.141,168.130 178.762,170.000 179.806 C 171.870 180.851,174.660 182.377,176.200 183.199 C 177.740 184.020,179.990 185.263,181.200 185.960 C 182.410 186.657,184.030 187.537,184.800 187.914 C 185.570 188.291,186.290 188.691,186.400 188.803 C 186.510 188.915,187.590 189.532,188.800 190.174 C 190.010 190.817,191.540 191.641,192.200 192.006 C 192.860 192.371,194.390 193.217,195.600 193.887 C 206.281 199.797,204.729 199.520,209.862 196.428 C 212.028 195.123,214.970 193.355,216.400 192.498 C 217.830 191.642,220.980 189.709,223.400 188.205 C 225.820 186.700,229.060 184.737,230.600 183.844 C 232.140 182.950,233.490 182.125,233.600 182.010 C 233.885 181.711,235.292 180.843,236.000 180.529 C 236.330 180.382,237.625 179.573,238.878 178.731 C 240.131 177.889,241.346 177.200,241.578 177.200 C 241.810 177.200,242.000 177.041,242.000 176.847 C 242.000 176.652,242.315 176.378,242.700 176.237 C 243.881 175.805,246.463 174.292,249.421 172.300 C 250.972 171.255,252.390 170.400,252.572 170.400 C 252.754 170.400,253.977 169.667,255.290 168.770 C 257.374 167.348,258.739 166.527,262.200 164.613 C 262.640 164.370,263.990 163.533,265.200 162.753 C 266.410 161.974,267.670 161.213,268.000 161.064 C 268.330 160.914,269.079 160.478,269.665 160.096 C 270.251 159.713,272.501 158.333,274.665 157.028 C 276.829 155.724,280.220 153.640,282.200 152.397 C 284.180 151.155,286.070 150.012,286.400 149.859 C 289.503 148.412,292.588 146.049,292.889 144.889 C 293.318 143.234,293.104 47.188,292.669 46.400 C 292.487 46.070,290.777 44.790,288.869 43.555 C 286.961 42.320,283.781 40.250,281.802 38.955 C 279.823 37.660,277.892 36.420,277.511 36.200 C 277.130 35.980,274.429 34.195,271.509 32.233 C 262.202 25.981,261.600 25.627,261.600 26.410 C 261.600 26.621,263.180 27.841,265.112 29.120 C 267.043 30.399,269.158 31.818,269.812 32.273 C 270.465 32.727,275.590 36.123,281.200 39.820 C 286.810 43.516,291.532 46.733,291.694 46.970 C 292.038 47.474,292.111 144.045,291.767 144.941 C 291.639 145.274,288.984 147.098,285.867 148.993 C 282.750 150.889,278.160 153.691,275.666 155.220 C 273.172 156.749,271.042 158.000,270.934 158.000 C 270.825 158.000,269.760 158.630,268.568 159.400 C 263.959 162.376,262.045 163.566,257.600 166.215 C 255.070 167.724,252.459 169.360,251.798 169.851 C 251.137 170.343,250.147 170.947,249.598 171.193 C 249.049 171.439,247.070 172.613,245.200 173.803 C 243.330 174.992,240.450 176.715,238.800 177.631 C 237.150 178.547,235.440 179.612,235.000 179.997 C 234.560 180.382,233.712 180.945,233.116 181.248 C 231.603 182.019,226.712 184.975,223.513 187.054 C 222.035 188.014,220.716 188.800,220.581 188.800 C 220.350 188.800,217.039 190.859,214.780 192.406 C 214.220 192.791,212.870 193.567,211.780 194.131 C 210.691 194.695,208.990 195.706,208.000 196.377 C 205.753 197.900,203.802 197.755,201.400 195.889 C 201.180 195.718,200.190 195.162,199.200 194.653 C 195.941 192.978,191.807 190.734,191.400 190.419 C 191.180 190.249,189.650 189.387,188.000 188.503 C 186.350 187.619,183.740 186.221,182.200 185.395 C 180.660 184.569,178.590 183.411,177.600 182.822 C 176.610 182.232,174.900 181.321,173.800 180.796 C 172.700 180.271,171.562 179.607,171.271 179.321 C 170.981 179.034,170.575 178.800,170.369 178.800 C 170.164 178.800,167.755 177.544,165.015 176.008 C 162.276 174.473,158.849 172.599,157.401 171.844 C 155.952 171.089,154.550 170.291,154.284 170.071 C 154.018 169.851,152.630 169.055,151.200 168.302 C 149.770 167.548,147.970 166.571,147.200 166.130 C 146.430 165.689,143.820 164.282,141.400 163.004 C 138.980 161.725,136.550 160.368,136.000 159.987 C 135.450 159.607,133.470 158.493,131.600 157.512 C 125.469 154.297,122.256 152.545,118.400 150.313 L 114.600 148.113 114.286 142.957 C 113.747 134.087,114.125 51.152,114.710 50.119 C 114.984 49.634,116.151 48.605,117.304 47.832 C 118.457 47.060,120.030 45.882,120.800 45.215 C 121.570 44.548,122.328 44.001,122.484 44.001 C 122.641 44.000,123.721 43.226,124.884 42.279 C 126.662 40.833,131.733 37.092,136.378 33.800 C 143.517 28.740,146.061 26.556,145.899 25.627 C 145.807 25.095,141.737 22.002,141.129 22.001 C 140.792 22.000,136.020 19.233,135.200 18.564 C 134.870 18.294,133.250 17.364,131.600 16.497 C 129.950 15.629,126.738 13.813,124.463 12.460 C 122.187 11.107,120.217 10.000,120.084 10.000 C 119.952 10.000,119.135 9.505,118.269 8.900 C 116.622 7.748,111.734 4.958,109.000 3.608 C 106.834 2.538,106.132 2.600,103.800 4.069 M88.497 300.448 C 73.799 304.691,73.690 329.627,88.355 332.962 C 99.753 335.555,108.289 328.765,108.442 316.984 C 108.591 305.576,98.814 297.470,88.497 300.448 M168.401 300.503 C 162.886 301.010,163.248 299.756,163.549 317.281 C 163.846 334.628,163.219 333.000,169.600 333.000 C 175.563 333.000,175.313 333.250,175.528 327.102 C 175.711 321.870,175.817 321.616,177.820 321.606 C 179.801 321.596,180.000 322.110,180.000 327.231 C 180.000 333.148,179.851 333.000,185.800 333.000 C 192.205 333.000,191.600 334.691,191.600 316.800 C 191.600 298.956,192.181 300.624,185.965 300.624 C 180.208 300.624,180.127 300.704,179.938 306.575 C 179.785 311.341,179.314 312.238,177.235 311.730 C 175.725 311.361,175.613 311.005,175.606 306.576 C 175.597 300.737,174.638 299.928,168.401 300.503 M52.700 300.675 C 47.564 300.983,49.419 301.800,55.253 301.800 L 60.508 301.800 62.554 305.800 C 65.164 310.903,65.494 310.941,67.830 306.400 C 68.792 304.530,69.668 302.685,69.777 302.300 C 69.949 301.691,70.517 301.600,74.164 301.600 C 78.752 301.600,79.250 301.842,78.072 303.503 C 77.644 304.106,76.880 305.500,76.374 306.600 C 75.868 307.700,74.890 309.500,74.199 310.600 C 73.509 311.700,72.192 314.106,71.272 315.946 L 69.600 319.293 69.600 325.423 C 69.600 329.826,69.462 331.638,69.110 331.855 C 68.362 332.318,60.010 332.268,59.948 331.800 C 59.919 331.580,59.863 328.591,59.824 325.157 L 59.753 318.915 55.732 312.157 C 53.521 308.441,51.381 304.821,50.977 304.113 C 49.799 302.049,49.149 302.213,50.140 304.324 C 50.625 305.356,51.309 306.650,51.659 307.200 C 57.751 316.759,58.667 319.138,58.975 326.198 C 59.289 333.401,58.954 333.000,64.652 333.000 C 70.535 333.000,70.304 333.281,70.377 326.017 C 70.437 320.105,70.685 318.646,71.932 316.896 C 72.366 316.287,73.457 314.281,74.357 312.439 C 75.258 310.596,76.159 308.889,76.360 308.644 C 76.561 308.400,77.391 306.873,78.204 305.252 C 80.149 301.370,79.786 300.873,74.775 300.563 C 70.379 300.291,69.868 300.589,67.687 304.703 C 65.569 308.697,65.188 308.751,63.450 305.300 C 61.040 300.515,60.346 300.216,52.700 300.675 M113.130 300.665 C 112.322 300.764,111.434 301.118,111.158 301.451 C 110.477 302.272,110.505 323.819,111.190 326.365 C 113.635 335.442,132.325 336.266,136.563 327.483 C 137.456 325.632,138.244 307.025,137.654 301.715 C 137.492 300.257,129.568 300.009,128.529 301.429 C 128.124 301.983,128.000 304.480,128.000 312.095 L 128.000 322.036 127.018 323.018 C 126.478 323.558,125.660 324.000,125.200 324.000 C 124.740 324.000,123.922 323.558,123.382 323.018 L 122.400 322.036 122.400 311.832 C 122.400 302.273,122.353 301.603,121.652 301.228 C 120.786 300.765,115.289 300.402,113.130 300.665 M140.400 300.907 C 139.057 301.380,138.990 301.499,138.750 303.800 C 138.259 308.504,139.098 310.400,141.670 310.400 C 145.024 310.400,144.897 309.755,144.980 327.237 C 145.007 332.993,146.064 333.758,152.973 333.018 C 156.408 332.650,156.400 332.677,156.400 320.730 L 156.400 311.180 157.426 310.790 C 157.990 310.576,159.025 310.397,159.726 310.394 C 162.655 310.380,164.247 304.277,162.036 301.544 C 161.121 300.413,143.291 299.888,140.400 300.907 M99.750 302.628 C 110.499 307.891,110.067 326.379,99.077 331.456 C 86.899 337.082,74.940 324.997,79.036 311.204 C 80.035 307.840,84.558 302.400,86.356 302.400 C 86.732 302.400,87.211 302.233,87.420 302.029 C 88.720 300.758,96.725 301.147,99.750 302.628 M121.600 311.974 C 121.600 317.680,121.772 322.800,121.982 323.352 C 122.846 325.626,128.081 325.423,128.577 323.098 C 128.683 322.604,128.836 317.610,128.919 312.000 L 129.070 301.800 132.598 301.684 C 137.163 301.533,136.837 300.641,136.814 313.217 C 136.789 326.631,136.259 328.669,132.203 330.936 C 125.435 334.719,114.824 332.544,112.354 326.867 C 111.587 325.105,111.148 302.585,111.867 301.867 C 112.013 301.720,114.263 301.600,116.867 301.600 L 121.600 301.600 121.600 311.974 M161.600 304.929 C 161.886 309.411,161.767 309.600,158.662 309.600 C 155.081 309.600,155.234 309.067,155.376 321.117 C 155.445 326.890,155.343 331.712,155.150 331.831 C 154.957 331.950,152.864 332.062,150.499 332.078 L 146.200 332.108 146.000 320.954 L 145.800 309.800 142.800 309.600 L 139.800 309.400 139.683 306.033 C 139.618 304.182,139.659 302.424,139.773 302.127 C 139.941 301.688,141.994 301.607,150.690 301.693 L 161.400 301.800 161.600 304.929 M174.423 302.100 C 174.435 302.375,174.433 304.580,174.417 307.000 C 174.382 312.492,174.369 312.470,177.836 312.320 L 180.600 312.200 180.800 307.000 L 181.000 301.800 185.800 301.800 L 190.600 301.800 190.600 316.944 L 190.600 332.089 186.041 332.089 C 180.503 332.089,180.766 332.399,180.899 326.023 C 181.016 320.411,181.019 320.416,177.514 320.406 C 174.549 320.398,174.402 320.693,174.394 326.674 C 174.386 332.535,174.695 332.200,169.300 332.200 C 166.574 332.200,164.796 332.042,164.789 331.800 C 164.759 330.667,164.737 302.527,164.766 302.100 C 164.791 301.730,166.045 301.600,169.600 301.600 C 173.161 301.600,174.406 301.729,174.423 302.100 M90.796 309.604 C 87.195 313.459,88.737 325.200,92.844 325.200 C 95.846 325.200,96.899 322.873,96.860 316.321 C 96.820 309.522,93.897 306.285,90.796 309.604 M94.174 310.231 C 97.168 313.225,96.076 324.000,92.779 324.000 C 90.840 324.000,89.968 321.932,89.970 317.335 C 89.972 311.453,91.989 308.046,94.174 310.231 " stroke="none" fill="#f39a9c" fill-rule="evenodd"/><path id="path5" d="M105.823 3.963 C 105.700 4.162,105.941 4.236,106.359 4.127 C 106.776 4.017,107.542 4.134,108.059 4.386 C 108.955 4.822,108.963 4.814,108.224 4.222 C 107.363 3.532,106.169 3.403,105.823 3.963 M295.549 4.700 C 295.072 5.309,295.078 5.340,295.600 4.943 C 295.930 4.692,296.560 4.398,297.000 4.289 C 297.760 4.103,297.757 4.090,296.949 4.046 C 296.481 4.021,295.851 4.315,295.549 4.700 M72.122 24.972 C 71.222 25.752,71.099 26.045,71.500 26.452 C 71.903 26.861,72.000 26.821,72.000 26.244 C 72.000 25.850,72.405 25.190,72.900 24.777 C 73.395 24.364,73.675 24.021,73.522 24.013 C 73.370 24.006,72.740 24.437,72.122 24.972 M143.790 25.003 C 144.466 25.531,144.507 25.737,144.072 26.434 C 143.604 27.183,143.628 27.213,144.382 26.810 C 145.517 26.202,145.404 25.416,144.100 24.858 C 143.070 24.417,143.050 24.426,143.790 25.003 M261.690 24.870 C 261.346 25.214,261.338 25.484,261.658 25.870 C 262.313 26.660,262.600 26.516,262.600 25.400 C 262.600 24.291,262.390 24.170,261.690 24.870 M332.007 27.760 C 332.470 28.354,332.649 30.368,332.822 36.960 L 333.044 45.400 333.122 36.962 C 333.199 28.678,333.184 28.510,332.307 27.762 C 331.432 27.016,331.426 27.016,332.007 27.760 M199.800 51.266 C 198.231 52.132,191.273 56.218,183.200 61.014 C 178.690 63.693,171.894 67.726,168.097 69.977 L 161.194 74.068 161.297 97.131 L 161.400 120.194 167.000 123.422 C 170.080 125.197,173.590 127.197,174.800 127.867 C 176.010 128.537,178.890 130.167,181.200 131.489 C 183.510 132.811,188.370 135.563,192.000 137.604 C 195.630 139.646,199.458 141.830,200.506 142.458 C 203.081 144.001,203.436 143.944,207.806 141.300 C 209.897 140.035,212.058 138.730,212.609 138.400 C 232.977 126.193,237.600 123.321,237.600 122.873 C 237.600 122.015,221.826 111.447,220.907 111.690 C 220.518 111.792,216.089 114.962,211.063 118.733 C 202.871 124.881,201.838 125.543,201.063 125.140 C 200.012 124.593,191.531 119.231,186.600 115.995 C 184.620 114.695,182.091 113.104,180.981 112.458 C 179.870 111.813,178.385 110.799,177.681 110.207 L 176.400 109.129 176.400 96.593 C 176.400 82.559,176.170 83.651,179.528 81.730 C 180.558 81.141,183.557 79.400,186.193 77.860 C 188.829 76.320,192.077 74.470,193.411 73.750 C 194.746 73.029,196.898 71.801,198.195 71.020 C 201.273 69.167,201.079 69.129,206.331 72.603 C 208.823 74.251,210.946 75.600,211.048 75.600 C 211.150 75.600,211.451 75.787,211.717 76.016 C 212.775 76.926,220.037 81.600,220.393 81.600 C 220.744 81.600,226.793 78.182,233.972 73.928 C 238.022 71.529,238.243 71.850,228.920 66.584 C 224.344 64.000,218.980 60.944,217.000 59.792 C 208.821 55.035,201.246 50.801,200.934 50.812 C 200.750 50.819,200.240 51.023,199.800 51.266 M333.337 70.600 C 333.339 72.360,333.409 73.030,333.493 72.089 C 333.578 71.149,333.577 69.709,333.491 68.889 C 333.405 68.070,333.336 68.840,333.337 70.600 M232.400 73.600 C 232.400 73.820,232.051 74.000,231.624 74.000 C 231.197 74.000,230.736 74.180,230.600 74.400 C 230.464 74.620,230.048 74.792,229.676 74.783 C 229.276 74.773,229.571 74.454,230.400 74.000 C 232.010 73.119,232.400 73.041,232.400 73.600 M333.731 98.600 C 333.733 100.140,333.805 100.721,333.892 99.891 C 333.979 99.061,333.977 97.801,333.889 97.091 C 333.800 96.381,333.729 97.060,333.731 98.600 M224.325 114.775 C 224.425 115.075,224.275 115.225,223.975 115.125 C 223.686 115.029,223.371 114.714,223.275 114.425 C 223.175 114.125,223.325 113.975,223.625 114.075 C 223.914 114.171,224.229 114.486,224.325 114.775 M219.600 132.986 C 219.600 133.088,219.244 133.362,218.809 133.595 C 218.164 133.941,218.061 133.906,218.252 133.409 C 218.459 132.869,219.600 132.511,219.600 132.986 M209.783 139.228 C 209.486 139.708,208.400 139.713,208.400 139.233 C 208.400 138.800,209.268 138.433,209.707 138.682 C 209.875 138.777,209.909 139.023,209.783 139.228 M334.479 163.769 C 334.424 165.695,334.199 166.759,333.738 167.269 C 333.374 167.671,333.262 168.000,333.489 168.000 C 334.472 168.000,334.832 166.788,334.698 163.937 L 334.559 161.000 334.479 163.769 M71.664 167.755 C 71.739 168.170,72.250 168.675,72.800 168.877 C 73.643 169.188,73.706 169.163,73.200 168.723 C 72.870 168.435,72.359 167.930,72.064 167.600 C 71.595 167.075,71.545 167.094,71.664 167.755 M240.000 178.033 L 239.000 178.848 240.300 178.214 C 241.015 177.865,241.600 177.494,241.600 177.390 C 241.600 176.992,240.963 177.248,240.000 178.033 M90.600 178.690 C 90.820 178.900,91.720 179.476,92.600 179.970 C 93.480 180.465,93.840 180.570,93.400 180.204 C 92.506 179.461,89.972 178.091,90.600 178.690 M113.824 191.787 C 114.251 192.110,114.780 192.375,115.000 192.375 C 115.220 192.375,115.051 192.110,114.624 191.787 C 114.196 191.464,113.667 191.200,113.447 191.200 C 113.227 191.200,113.396 191.464,113.824 191.787 M244.514 216.200 C 244.517 217.300,244.595 217.703,244.687 217.095 C 244.779 216.486,244.777 215.586,244.682 215.095 C 244.587 214.603,244.511 215.100,244.514 216.200 M244.575 231.000 C 244.575 236.940,244.631 239.426,244.699 236.524 C 244.767 233.622,244.767 228.762,244.699 225.724 C 244.631 222.686,244.575 225.060,244.575 231.000 M163.654 252.451 C 163.624 253.030,163.914 253.748,164.300 254.051 C 164.909 254.529,164.940 254.522,164.538 254.000 C 164.284 253.670,163.994 252.950,163.893 252.400 L 163.709 251.400 163.654 252.451 M244.528 254.400 C 244.528 255.830,244.601 256.415,244.689 255.700 C 244.778 254.985,244.778 253.815,244.689 253.100 C 244.601 252.385,244.528 252.970,244.528 254.400 M243.881 259.039 C 243.486 259.568,243.345 260.000,243.567 260.000 C 243.972 260.000,244.982 258.444,244.732 258.205 C 244.660 258.135,244.277 258.511,243.881 259.039 M179.600 265.311 C 179.600 265.387,180.185 265.878,180.900 266.401 C 181.704 266.990,181.984 267.087,181.633 266.655 C 181.100 265.999,179.600 265.007,179.600 265.311 M183.400 268.192 C 185.383 269.925,187.102 271.096,186.423 270.251 C 186.106 269.856,185.026 268.995,184.023 268.338 C 182.374 267.257,182.314 267.243,183.400 268.192 M202.600 282.400 C 202.736 282.620,203.096 282.800,203.400 282.800 C 203.704 282.800,204.064 282.620,204.200 282.400 C 204.341 282.172,203.996 282.000,203.400 282.000 C 202.804 282.000,202.459 282.172,202.600 282.400 M50.205 301.992 C 50.008 302.310,50.605 304.000,50.914 304.000 C 50.961 304.000,51.000 303.460,51.000 302.800 C 51.000 301.600,50.661 301.255,50.205 301.992 M77.100 301.882 C 77.595 301.978,78.000 302.349,78.000 302.708 C 78.000 303.187,78.118 303.242,78.445 302.915 C 79.109 302.251,78.498 301.593,77.276 301.654 C 76.334 301.702,76.312 301.730,77.100 301.882 M111.845 301.928 C 111.733 302.108,112.173 302.177,112.821 302.082 C 113.470 301.987,114.000 301.840,114.000 301.755 C 114.000 301.450,112.043 301.607,111.845 301.928 M120.400 301.751 C 120.400 301.834,120.670 302.126,121.000 302.400 C 121.491 302.808,121.600 302.780,121.600 302.249 C 121.600 301.892,121.330 301.600,121.000 301.600 C 120.670 301.600,120.400 301.668,120.400 301.751 M129.067 301.867 C 128.574 302.360,128.780 302.914,129.300 302.492 C 129.575 302.269,130.160 301.998,130.600 301.889 C 131.244 301.731,131.198 301.684,130.367 301.646 C 129.798 301.621,129.213 301.720,129.067 301.867 M135.682 301.849 C 136.212 302.006,136.398 302.628,136.512 304.628 L 136.659 307.203 136.630 304.506 C 136.603 302.113,136.510 301.799,135.800 301.727 C 135.211 301.667,135.180 301.699,135.682 301.849 M139.770 302.133 C 139.658 302.427,139.618 304.182,139.683 306.033 L 139.800 309.400 141.600 309.450 C 143.005 309.489,143.094 309.460,142.003 309.317 C 140.179 309.079,140.013 308.745,140.006 305.287 C 140.001 302.637,140.081 302.342,140.900 302.012 L 141.800 301.651 140.887 301.625 C 140.386 301.611,139.883 301.840,139.770 302.133 M164.634 302.257 C 164.444 302.751,164.507 302.811,164.891 302.500 C 165.171 302.272,165.760 301.998,166.200 301.889 C 166.831 301.734,166.777 301.683,165.943 301.646 C 165.300 301.618,164.787 301.857,164.634 302.257 M173.000 301.889 C 173.440 301.998,174.029 302.272,174.309 302.500 C 174.693 302.811,174.756 302.751,174.566 302.257 C 174.413 301.857,173.900 301.618,173.257 301.646 C 172.423 301.683,172.369 301.734,173.000 301.889 M181.067 301.867 C 180.920 302.013,180.837 303.948,180.883 306.167 L 180.966 310.200 181.099 306.422 C 181.172 304.344,181.427 302.409,181.665 302.122 C 182.103 301.594,181.568 301.365,181.067 301.867 M189.185 301.936 C 189.740 302.101,190.299 302.660,190.464 303.215 C 190.732 304.117,190.750 304.099,190.678 303.000 C 190.611 301.971,190.429 301.789,189.400 301.722 C 188.301 301.650,188.283 301.668,189.185 301.936 M82.778 305.100 L 81.400 306.600 82.900 305.222 C 84.296 303.938,84.584 303.600,84.278 303.600 C 84.212 303.600,83.537 304.275,82.778 305.100 M102.873 305.003 C 103.684 305.881,104.806 307.410,105.368 308.400 C 105.931 309.390,106.393 310.010,106.395 309.778 C 106.404 309.038,104.155 305.842,102.754 304.603 C 101.420 303.422,101.421 303.428,102.873 305.003 M52.124 306.200 C 52.462 306.860,53.038 307.760,53.404 308.200 C 53.770 308.640,53.665 308.280,53.170 307.400 C 52.080 305.458,51.264 304.522,52.124 306.200 M80.057 308.457 C 79.775 308.909,79.632 309.366,79.740 309.473 C 79.847 309.581,80.144 309.278,80.400 308.800 C 81.005 307.670,80.724 307.390,80.057 308.457 M161.200 308.378 C 161.200 309.017,160.860 309.185,159.300 309.319 L 157.400 309.482 159.356 309.441 C 161.091 309.405,163.278 307.600,161.587 307.600 C 161.374 307.600,161.200 307.950,161.200 308.378 M164.524 310.200 C 164.526 311.520,164.601 312.012,164.690 311.293 C 164.779 310.574,164.777 309.494,164.686 308.893 C 164.595 308.292,164.522 308.880,164.524 310.200 M107.328 316.800 C 107.328 318.230,107.401 318.815,107.489 318.100 C 107.578 317.385,107.578 316.215,107.489 315.500 C 107.401 314.785,107.328 315.370,107.328 316.800 M155.337 320.200 C 155.339 321.960,155.409 322.630,155.493 321.689 C 155.578 320.749,155.577 319.309,155.491 318.489 C 155.405 317.670,155.336 318.440,155.337 320.200 M59.701 321.000 C 59.705 321.880,59.787 322.193,59.883 321.695 C 59.979 321.198,59.975 320.478,59.875 320.095 C 59.775 319.713,59.696 320.120,59.701 321.000 M69.288 325.500 C 69.210 330.198,69.109 330.891,68.400 331.600 C 67.841 332.159,67.766 332.400,68.151 332.400 C 69.408 332.400,69.624 331.334,69.499 325.745 L 69.375 320.200 69.288 325.500 M136.493 323.600 C 136.493 324.370,136.575 324.685,136.676 324.300 C 136.776 323.915,136.776 323.285,136.676 322.900 C 136.575 322.515,136.493 322.830,136.493 323.600 M111.634 324.867 C 111.441 326.394,115.147 331.203,116.514 331.199 C 116.781 331.198,116.460 330.863,115.800 330.456 C 114.201 329.468,113.454 328.556,112.480 326.400 C 112.033 325.410,111.652 324.720,111.634 324.867 M180.928 328.800 C 180.928 330.230,181.001 330.815,181.089 330.100 C 181.178 329.385,181.178 328.215,181.089 327.500 C 181.001 326.785,180.928 327.370,180.928 328.800 M59.714 329.400 C 59.717 330.500,59.795 330.903,59.887 330.295 C 59.979 329.686,59.977 328.786,59.882 328.295 C 59.787 327.803,59.711 328.300,59.714 329.400 M83.200 329.192 C 83.970 329.887,84.960 330.645,85.400 330.877 C 86.462 331.436,85.804 330.836,83.600 329.235 L 81.800 327.928 83.200 329.192 M101.800 329.468 C 100.920 330.257,100.560 330.716,101.000 330.488 C 101.741 330.104,103.951 327.979,103.570 328.017 C 103.476 328.026,102.680 328.679,101.800 329.468 M154.965 330.321 C 154.591 332.143,154.609 332.362,155.093 331.879 C 155.438 331.533,155.606 330.716,155.528 329.758 L 155.400 328.200 154.965 330.321 M133.218 329.850 C 131.336 331.186,131.171 331.418,132.629 330.677 C 133.305 330.334,134.092 329.771,134.378 329.426 C 135.060 328.605,134.877 328.672,133.218 329.850 M146.137 330.969 C 146.172 331.629,146.462 332.209,146.800 332.300 C 147.201 332.407,147.248 332.351,146.940 332.130 C 146.688 331.949,146.389 331.350,146.277 330.800 C 146.101 329.939,146.082 329.962,146.137 330.969 M164.567 330.800 C 164.689 331.350,164.792 331.935,164.795 332.100 C 164.798 332.265,165.194 332.400,165.676 332.400 C 166.445 332.400,166.476 332.339,165.926 331.900 C 165.581 331.625,165.085 331.040,164.822 330.600 C 164.379 329.857,164.361 329.872,164.567 330.800 M190.446 330.620 C 190.421 331.071,190.184 331.656,189.920 331.920 C 189.547 332.293,189.549 332.400,189.933 332.400 C 190.554 332.400,190.925 331.468,190.680 330.523 C 190.519 329.899,190.486 329.913,190.446 330.620 M91.491 332.689 C 92.201 332.777,93.461 332.779,94.291 332.692 C 95.121 332.605,94.540 332.533,93.000 332.531 C 91.460 332.529,90.781 332.600,91.491 332.689 M122.711 332.693 C 123.651 332.778,125.091 332.777,125.911 332.691 C 126.730 332.605,125.960 332.536,124.200 332.537 C 122.440 332.539,121.770 332.609,122.711 332.693 M70.914 358.980 C 57.001 363.329,55.512 387.680,68.791 393.719 C 78.516 398.142,90.526 392.329,90.876 383.029 C 90.950 381.064,90.692 380.948,85.538 380.614 C 80.575 380.292,80.226 380.425,79.850 382.779 C 79.256 386.492,74.683 387.226,72.933 383.888 C 71.939 381.992,71.697 374.448,72.537 371.559 C 74.320 365.424,78.685 366.219,80.184 372.950 L 80.440 374.100 85.320 373.818 C 91.363 373.468,91.514 373.364,90.802 370.012 C 88.923 361.157,79.923 356.165,70.914 358.980 M105.692 358.998 C 89.469 363.534,89.769 390.470,106.090 394.655 C 115.763 397.135,125.031 391.653,127.224 382.153 C 130.699 367.090,119.567 355.119,105.692 358.998 M132.889 359.271 C 132.191 359.969,132.182 393.622,132.880 394.320 C 133.183 394.623,134.702 394.800,137.000 394.800 C 141.884 394.800,141.600 395.372,141.600 385.520 C 141.600 377.213,141.925 375.405,142.790 378.900 C 143.021 379.835,143.655 382.130,144.199 384.000 C 144.742 385.870,145.578 388.930,146.057 390.800 C 147.097 394.858,147.011 394.786,150.824 394.794 C 154.762 394.802,154.838 394.719,156.356 388.800 C 159.733 375.627,160.000 375.395,160.000 385.626 C 160.000 390.118,160.170 393.571,160.414 394.026 C 160.916 394.963,169.823 395.217,170.720 394.320 C 171.474 393.566,171.404 359.867,170.647 359.239 C 170.267 358.924,167.940 358.815,163.180 358.890 L 156.266 359.000 155.561 361.200 C 155.173 362.410,154.274 365.701,153.565 368.512 C 151.883 375.174,151.823 375.140,149.415 366.200 C 148.822 364.000,148.111 361.480,147.835 360.600 L 147.334 359.000 140.356 358.891 C 135.266 358.812,133.245 358.915,132.889 359.271 M177.949 359.461 C 177.093 360.493,177.141 393.857,178.000 394.429 C 178.671 394.876,185.768 394.767,186.231 394.303 C 186.394 394.140,186.561 390.397,186.601 385.985 C 186.652 380.544,186.824 377.816,187.138 377.502 C 187.487 377.153,187.600 377.250,187.600 377.901 C 187.600 378.375,187.768 379.176,187.974 379.681 C 188.180 380.187,189.111 383.570,190.042 387.200 C 192.123 395.302,191.742 394.800,195.800 394.800 C 200.178 394.800,199.769 395.550,203.480 380.700 C 204.270 377.540,204.797 377.223,204.809 379.900 C 204.837 386.256,205.352 394.234,205.750 394.501 C 205.998 394.666,208.360 394.756,211.000 394.701 L 215.800 394.600 215.904 377.026 C 215.986 363.233,215.900 359.384,215.504 359.132 C 214.609 358.564,201.756 358.730,201.269 359.316 C 201.034 359.600,200.392 361.535,199.842 363.616 C 197.666 371.865,197.132 373.801,197.001 373.932 C 196.688 374.246,196.013 372.246,194.393 366.200 C 193.449 362.680,192.503 359.575,192.290 359.300 C 191.636 358.456,178.662 358.602,177.949 359.461 M222.700 359.232 C 221.848 359.728,221.633 383.049,222.445 386.835 C 224.636 397.051,245.319 398.353,250.541 388.604 C 251.363 387.069,251.406 386.416,251.529 373.416 C 251.680 357.530,252.082 358.800,246.897 358.800 C 241.565 358.800,242.000 357.670,242.000 371.525 C 242.000 384.890,242.009 384.843,239.159 385.611 C 234.421 386.887,234.005 385.708,234.002 370.980 C 234.001 362.789,233.870 359.630,233.520 359.280 C 232.919 358.679,223.719 358.639,222.700 359.232 M258.091 359.269 C 257.257 360.103,257.393 394.235,258.233 394.557 C 259.296 394.965,266.735 394.829,267.002 394.397 C 267.139 394.176,267.252 390.488,267.255 386.203 C 267.258 378.489,267.518 376.969,268.561 378.539 C 269.096 379.344,270.564 381.685,275.125 389.000 L 278.616 394.600 282.866 394.713 C 288.966 394.875,288.400 396.692,288.400 376.945 C 288.400 357.133,288.853 358.800,283.466 358.800 C 278.099 358.800,278.400 358.326,278.400 366.760 C 278.400 372.299,278.297 373.657,277.908 373.268 C 277.638 372.998,275.428 369.677,272.997 365.888 L 268.578 359.000 263.580 358.889 C 260.033 358.810,258.440 358.920,258.091 359.269 M294.814 359.574 C 294.187 360.745,294.250 393.690,294.880 394.320 C 295.203 394.643,297.013 394.800,300.400 394.800 C 303.787 394.800,305.597 394.643,305.920 394.320 C 306.550 393.690,306.613 360.745,305.986 359.574 C 305.609 358.870,305.104 358.800,300.400 358.800 C 295.696 358.800,295.191 358.870,294.814 359.574 M309.829 359.429 C 309.016 360.241,308.914 367.265,309.706 367.922 C 309.984 368.152,311.469 368.462,313.006 368.610 C 314.542 368.758,315.935 368.962,316.100 369.063 C 316.265 369.164,316.400 374.810,316.400 381.610 C 316.400 396.171,315.760 394.800,322.560 394.800 C 328.521 394.800,328.056 395.948,327.970 381.432 C 327.889 367.823,327.586 368.990,331.279 368.647 C 334.933 368.308,334.870 368.386,335.105 363.905 C 335.392 358.416,336.363 358.800,322.200 358.800 C 312.058 358.800,310.371 358.886,309.829 359.429 M336.900 359.065 C 336.319 359.300,336.224 361.044,336.774 361.384 C 336.980 361.511,337.670 362.557,338.309 363.708 C 338.947 364.858,340.462 367.510,341.676 369.600 C 342.890 371.690,344.718 374.840,345.739 376.600 L 347.594 379.800 347.597 387.057 C 347.601 395.566,347.026 394.800,353.404 394.800 C 359.538 394.800,359.199 395.286,359.202 386.471 C 359.204 381.208,359.346 379.144,359.758 378.400 C 360.062 377.850,361.521 375.150,363.000 372.400 C 364.479 369.650,366.144 366.590,366.701 365.600 C 370.680 358.521,370.778 358.796,364.267 358.806 C 359.395 358.813,359.665 358.663,357.787 362.400 C 354.022 369.889,354.201 369.824,351.572 364.667 C 350.656 362.870,349.553 360.815,349.120 360.100 L 348.335 358.800 342.867 358.832 C 339.860 358.849,337.175 358.954,336.900 359.065 M170.000 360.796 C 170.000 361.554,169.961 361.559,169.200 360.907 C 168.760 360.530,168.400 360.172,168.400 360.111 C 168.400 360.050,168.760 360.000,169.200 360.000 C 169.732 360.000,170.000 360.267,170.000 360.796 M178.933 361.300 C 178.586 363.123,178.400 363.181,178.400 361.467 C 178.400 360.660,178.576 360.000,178.790 360.000 C 179.014 360.000,179.075 360.553,178.933 361.300 M215.453 361.519 C 215.530 362.223,215.434 362.800,215.240 362.800 C 215.046 362.800,214.814 362.167,214.723 361.393 C 214.633 360.617,214.728 360.043,214.936 360.112 C 215.143 360.181,215.376 360.814,215.453 361.519 M296.000 361.200 C 296.000 361.860,295.820 362.400,295.600 362.400 C 295.155 362.400,295.048 360.685,295.467 360.267 C 295.919 359.815,296.000 359.957,296.000 361.200 M311.673 360.634 C 311.028 361.086,310.842 361.502,311.026 362.081 C 311.210 362.661,311.129 362.843,310.742 362.714 C 309.332 362.245,309.939 360.000,311.476 360.000 L 312.578 360.000 311.673 360.634 M279.491 366.300 C 279.405 367.125,279.334 366.450,279.334 364.800 C 279.334 363.150,279.405 362.475,279.491 363.300 C 279.578 364.125,279.578 365.475,279.491 366.300 M349.194 362.500 C 349.180 363.642,348.412 364.226,348.406 363.100 C 348.403 362.495,348.580 362.000,348.800 362.000 C 349.020 362.000,349.197 362.225,349.194 362.500 M98.760 365.569 C 97.930 366.692,97.200 367.157,97.200 366.564 C 97.200 366.209,99.343 364.010,99.518 364.185 C 99.602 364.269,99.261 364.891,98.760 365.569 M341.088 365.913 C 340.954 366.466,340.841 366.405,340.508 365.600 C 340.280 365.050,340.188 364.442,340.302 364.249 C 340.616 363.720,341.278 365.123,341.088 365.913 M64.800 365.376 C 64.800 365.977,64.082 366.615,63.764 366.297 C 63.485 366.018,64.037 364.800,64.443 364.800 C 64.639 364.800,64.800 365.059,64.800 365.376 M200.800 366.600 C 200.800 367.150,200.645 367.600,200.455 367.600 C 200.266 367.600,200.197 367.150,200.302 366.600 C 200.407 366.050,200.562 365.600,200.647 365.600 C 200.731 365.600,200.800 366.050,200.800 366.600 M310.800 366.600 C 310.800 367.150,310.645 367.600,310.455 367.600 C 310.266 367.600,310.197 367.150,310.302 366.600 C 310.407 366.050,310.562 365.600,310.647 365.600 C 310.731 365.600,310.800 366.050,310.800 366.600 M63.446 367.777 C 63.568 368.094,63.601 368.679,63.518 369.077 C 63.409 369.608,63.246 369.454,62.905 368.500 C 62.453 367.233,62.972 366.540,63.446 367.777 M113.130 368.525 C 116.025 371.607,115.765 383.238,112.753 385.348 C 109.295 387.770,106.416 383.921,106.405 376.862 C 106.393 369.679,110.006 365.200,113.130 368.525 M275.103 371.431 C 274.709 371.824,274.000 371.220,274.000 370.491 C 274.000 369.880,274.053 369.881,274.676 370.505 C 275.048 370.877,275.240 371.293,275.103 371.431 M189.172 378.500 C 189.187 378.665,189.020 378.800,188.800 378.800 C 188.580 378.800,188.413 378.305,188.428 377.700 C 188.454 376.674,189.062 377.327,189.172 378.500 M125.280 384.880 C 124.907 385.253,124.800 385.147,124.800 384.400 C 124.800 383.653,124.907 383.547,125.280 383.920 C 125.653 384.293,125.653 384.507,125.280 384.880 M179.313 393.279 C 179.650 393.492,179.584 393.590,179.100 393.594 C 178.465 393.599,178.408 393.125,178.486 388.500 L 178.572 383.400 178.699 388.185 C 178.785 391.382,178.988 393.072,179.313 393.279 M234.400 386.292 C 234.400 386.785,234.288 386.805,233.800 386.400 C 233.470 386.126,233.200 385.750,233.200 385.564 C 233.200 385.377,233.470 385.329,233.800 385.455 C 234.130 385.582,234.400 385.958,234.400 386.292 M102.800 390.000 C 102.800 390.220,102.530 390.400,102.200 390.400 C 101.870 390.400,101.600 390.220,101.600 390.000 C 101.600 389.780,101.870 389.600,102.200 389.600 C 102.530 389.600,102.800 389.780,102.800 390.000 M148.529 393.206 C 148.802 393.210,148.748 393.372,148.400 393.591 C 147.745 394.006,147.091 392.947,147.541 392.200 C 147.673 391.980,147.844 392.115,147.920 392.500 C 147.996 392.885,148.270 393.203,148.529 393.206 M161.594 393.300 C 161.597 393.465,161.420 393.600,161.200 393.600 C 160.980 393.600,160.803 393.195,160.806 392.700 C 160.812 391.841,161.576 392.423,161.594 393.300 M199.200 393.133 C 199.200 393.654,198.724 394.001,198.338 393.761 C 197.924 393.506,198.281 392.800,198.824 392.800 C 199.031 392.800,199.200 392.950,199.200 393.133 M231.600 393.200 C 231.600 393.420,231.251 393.600,230.824 393.600 C 230.397 393.600,229.936 393.420,229.800 393.200 C 229.660 392.973,229.996 392.800,230.576 392.800 C 231.139 392.800,231.600 392.980,231.600 393.200 M78.200 394.000 C 77.208 394.426,74.930 394.426,73.600 394.000 C 72.918 393.782,73.618 393.676,75.800 393.668 C 77.929 393.660,78.732 393.771,78.200 394.000 M112.474 394.054 C 111.640 394.295,110.525 394.297,109.474 394.061 C 107.912 393.711,108.002 393.685,110.800 393.679 C 113.359 393.673,113.605 393.728,112.474 394.054 M238.477 394.082 C 237.099 394.333,235.835 394.331,234.877 394.076 C 233.611 393.739,233.915 393.684,237.000 393.689 C 240.523 393.695,240.554 393.703,238.477 394.082 " stroke="none" fill="#889671" fill-rule="evenodd"/></g>
</svg>